<svg xmlns="http://www.w3.org/2000/svg" viewBox="0 0 59.46 59.46"><defs><style>.cls-1{fill:#bfb3a4;}.cls-2{stroke:#000;stroke-miterlimit:10;}</style></defs><title>sound</title><g id="Layer_2" data-name="Layer 2"><g id="Layer_1-2" data-name="Layer 1"><circle class="cls-1" cx="29.73" cy="29.73" r="29.73"/><path class="cls-2" d="M35.73,14.73a1,1,0,0,0,0,2,13,13,0,1,1,0,26,1,1,0,0,0,0,2,15,15,0,1,0,0-30Z"/><path class="cls-2" d="M35.73,40.73a11,11,0,1,0,0-22,1,1,0,0,0,0,2,9,9,0,1,1,0,18,1,1,0,0,0,0,2Z"/><path class="cls-2" d="M35.73,34.73a1,1,0,0,0,0,2,7,7,0,1,0,0-14,1,1,0,0,0,0,2,5,5,0,0,1,0,10Z"/><path class="cls-2" d="M9.73,36.73h5.68l9.81,7.06,4,2.4.08,0,.09,0a1,1,0,0,0,.34.07h0a1,1,0,0,0,.34-.07l.08,0a1.07,1.07,0,0,0,.28-.19l0,0a.55.55,0,0,0,.13-.17l0-.06a1.07,1.07,0,0,0,.07-.19,1.42,1.42,0,0,0,0-.2s0,0,0-.07V14.13s0,0,0-.07a.71.71,0,0,0,0-.2,1.07,1.07,0,0,0-.07-.19l0-.06-.08-.09a.66.66,0,0,0-.14-.15l-.16-.11L30,13.18l-.2,0-.11,0h-.07a.71.71,0,0,0-.2,0l-.19.07-.06,0-4.07,2.45-9.72,7H9.73a1,1,0,0,0-1,1v12A1,1,0,0,0,9.73,36.73Zm1-12h5a1,1,0,0,0,.35-.07l.11-.05a.45.45,0,0,0,.12-.06l9.93-7.15,2.49-1.5V43.57l-2.42-1.45-10-7.2-.1,0L16,34.8l-.2,0-.1,0h-5Z"/></g></g></svg>