<?xml version="1.0" encoding="utf-8"?>
<!-- Generator: Adobe Illustrator 22.1.0, SVG Export Plug-In . SVG Version: 6.00 Build 0)  -->
<svg version="1.1" id="Layer_1" xmlns="http://www.w3.org/2000/svg" xmlns:xlink="http://www.w3.org/1999/xlink" x="0px" y="0px"
	 viewBox="0 0 1024 1648.7" style="enable-background:new 0 0 1024 1648.7;" xml:space="preserve">
<style type="text/css">
	.st0{opacity:0.9;}
	.st1{fill:#E3E3E3;}
</style>
<g class="st0">
	<g>
		<path class="st1" d="M834.1,1646.6v-129.7h-80.5v129.7H574c-5.4,0-9.7-4.4-9.7-9.7V193c0-26.2,21.3-47.5,47.5-47.5H976
			c26.2,0,47.5,21.3,47.5,47.5v1444.4c0,5.1-4.1,9.2-9.2,9.2H834.1z M937.1,1453.4h37.8v-70.5h-37.8V1453.4z M856.8,1453.4h37.8
			v-70.5h-37.8V1453.4z M776.6,1453.4h37.8v-70.5h-37.8V1453.4z M696.4,1453.4h37.8v-70.5h-37.8V1453.4z M616.1,1453.4h37.8v-70.5
			h-37.8V1453.4z M937.1,1338.1h37.8v-70.5h-37.8V1338.1z M856.8,1338.1h37.8v-70.5h-37.8V1338.1z M776.6,1338.1h37.8v-70.5h-37.8
			V1338.1z M696.4,1338.1h37.8v-70.5h-37.8V1338.1z M616.1,1338.1h37.8v-70.5h-37.8V1338.1z M937.1,1221.9h37.8v-70.5h-37.8V1221.9z
			 M856.8,1221.9h37.8v-70.5h-37.8V1221.9z M776.6,1221.9h37.8v-70.5h-37.8V1221.9z M696.4,1221.9h37.8v-70.5h-37.8V1221.9z
			 M616.1,1221.9h37.8v-70.5h-37.8V1221.9z M937.1,1105.7h37.8v-70.5h-37.8V1105.7z M856.8,1105.7h37.8v-70.5h-37.8V1105.7z
			 M776.6,1105.7h37.8v-70.5h-37.8V1105.7z M696.4,1105.7h37.8v-70.5h-37.8V1105.7z M616.1,1105.7h37.8v-70.5h-37.8V1105.7z
			 M937.1,989.5h37.8V919h-37.8V989.5z M856.8,989.5h37.8V919h-37.8V989.5z M776.6,989.5h37.8V919h-37.8V989.5z M696.4,989.5h37.8
			V919h-37.8V989.5z M616.1,989.5h37.8V919h-37.8V989.5z M937.1,873.3h37.8v-70.5h-37.8V873.3z M856.8,873.3h37.8v-70.5h-37.8V873.3
			z M776.6,873.3h37.8v-70.5h-37.8V873.3z M696.4,873.3h37.8v-70.5h-37.8V873.3z M616.1,873.3h37.8v-70.5h-37.8V873.3z M933.8,758.9
			h37.8v-70.5h-37.8V758.9z M853.6,758.9h37.8v-70.5h-37.8V758.9z M773.4,758.9h37.8v-70.5h-37.8V758.9z M693.1,758.9h37.8v-70.5
			h-37.8V758.9z M612.9,758.9h37.8v-70.5h-37.8V758.9z M937.1,642.7h37.8v-70.5h-37.8V642.7z M856.8,642.7h37.8v-70.5h-37.8V642.7z
			 M776.6,642.7h37.8v-70.5h-37.8V642.7z M696.4,642.7h37.8v-70.5h-37.8V642.7z M616.1,642.7h37.8v-70.5h-37.8V642.7z M933.8,526.5
			h37.8V456h-37.8V526.5z M853.6,526.5h37.8V456h-37.8V526.5z M773.4,526.5h37.8V456h-37.8V526.5z M693.1,526.5h37.8V456h-37.8
			V526.5z M612.9,526.5h37.8V456h-37.8V526.5z M933.8,410.3h37.8v-70.5h-37.8V410.3z M853.6,410.3h37.8v-70.5h-37.8V410.3z
			 M773.4,410.3h37.8v-70.5h-37.8V410.3z M693.1,410.3h37.8v-70.5h-37.8V410.3z M612.9,410.3h37.8v-70.5h-37.8V410.3z M937.1,294.1
			h37.8v-70.5h-37.8V294.1z M856.8,294.1h37.8v-70.5h-37.8V294.1z M776.6,294.1h37.8v-70.5h-37.8V294.1z M696.4,294.1h37.8v-70.5
			h-37.8V294.1z M616.1,294.1h37.8v-70.5h-37.8V294.1z"/>
	</g>
	<g>
		<path d="M976,146c25.9,0,47,21.1,47,47v1444.4c0,4.8-3.9,8.7-8.7,8.7H834.6v-128.7v-1h-1h-79.5h-1v1v128.7H574
			c-5.1,0-9.2-4.1-9.2-9.2V193c0-25.9,21.1-47,47-47H976 M936.6,294.6h1h36.8h1v-1v-69.5v-1h-1h-36.8h-1v1v69.5V294.6 M856.3,294.6
			h1h36.8h1v-1v-69.5v-1h-1h-36.8h-1v1v69.5V294.6 M776.1,294.6h1h36.8h1v-1v-69.5v-1h-1h-36.8h-1v1v69.5V294.6 M695.9,294.6h1h36.8
			h1v-1v-69.5v-1h-1h-36.8h-1v1v69.5V294.6 M615.6,294.6h1h36.8h1v-1v-69.5v-1h-1h-36.8h-1v1v69.5V294.6 M933.3,410.8h1h36.8h1v-1
			v-69.5v-1h-1h-36.8h-1v1v69.5V410.8 M853.1,410.8h1h36.8h1v-1v-69.5v-1h-1h-36.8h-1v1v69.5V410.8 M772.9,410.8h1h36.8h1v-1v-69.5
			v-1h-1h-36.8h-1v1v69.5V410.8 M692.6,410.8h1h36.8h1v-1v-69.5v-1h-1h-36.8h-1v1v69.5V410.8 M612.4,410.8h1h36.8h1v-1v-69.5v-1h-1
			h-36.8h-1v1v69.5V410.8 M933.3,527h1h36.8h1v-1v-69.5v-1h-1h-36.8h-1v1V526V527 M853.1,527h1h36.8h1v-1v-69.5v-1h-1h-36.8h-1v1
			V526V527 M772.9,527h1h36.8h1v-1v-69.5v-1h-1h-36.8h-1v1V526V527 M692.6,527h1h36.8h1v-1v-69.5v-1h-1h-36.8h-1v1V526V527
			 M612.4,527h1h36.8h1v-1v-69.5v-1h-1h-36.8h-1v1V526V527 M936.6,643.2h1h36.8h1v-1v-69.5v-1h-1h-36.8h-1v1v69.5V643.2
			 M856.3,643.2h1h36.8h1v-1v-69.5v-1h-1h-36.8h-1v1v69.5V643.2 M776.1,643.2h1h36.8h1v-1v-69.5v-1h-1h-36.8h-1v1v69.5V643.2
			 M695.9,643.2h1h36.8h1v-1v-69.5v-1h-1h-36.8h-1v1v69.5V643.2 M615.6,643.2h1h36.8h1v-1v-69.5v-1h-1h-36.8h-1v1v69.5V643.2
			 M933.3,759.4h1h36.8h1v-1v-69.5v-1h-1h-36.8h-1v1v69.5V759.4 M853.1,759.4h1h36.8h1v-1v-69.5v-1h-1h-36.8h-1v1v69.5V759.4
			 M772.9,759.4h1h36.8h1v-1v-69.5v-1h-1h-36.8h-1v1v69.5V759.4 M692.6,759.4h1h36.8h1v-1v-69.5v-1h-1h-36.8h-1v1v69.5V759.4
			 M612.4,759.4h1h36.8h1v-1v-69.5v-1h-1h-36.8h-1v1v69.5V759.4 M936.6,873.8h1h36.8h1v-1v-69.5v-1h-1h-36.8h-1v1v69.5V873.8
			 M856.3,873.8h1h36.8h1v-1v-69.5v-1h-1h-36.8h-1v1v69.5V873.8 M776.1,873.8h1h36.8h1v-1v-69.5v-1h-1h-36.8h-1v1v69.5V873.8
			 M695.9,873.8h1h36.8h1v-1v-69.5v-1h-1h-36.8h-1v1v69.5V873.8 M615.6,873.8h1h36.8h1v-1v-69.5v-1h-1h-36.8h-1v1v69.5V873.8
			 M936.6,990h1h36.8h1v-1v-69.5v-1h-1h-36.8h-1v1V989V990 M856.3,990h1h36.8h1v-1v-69.5v-1h-1h-36.8h-1v1V989V990 M776.1,990h1
			h36.8h1v-1v-69.5v-1h-1h-36.8h-1v1V989V990 M695.9,990h1h36.8h1v-1v-69.5v-1h-1h-36.8h-1v1V989V990 M615.6,990h1h36.8h1v-1v-69.5
			v-1h-1h-36.8h-1v1V989V990 M936.6,1106.2h1h36.8h1v-1v-69.5v-1h-1h-36.8h-1v1v69.5V1106.2 M856.3,1106.2h1h36.8h1v-1v-69.5v-1h-1
			h-36.8h-1v1v69.5V1106.2 M776.1,1106.2h1h36.8h1v-1v-69.5v-1h-1h-36.8h-1v1v69.5V1106.2 M695.9,1106.2h1h36.8h1v-1v-69.5v-1h-1
			h-36.8h-1v1v69.5V1106.2 M615.6,1106.2h1h36.8h1v-1v-69.5v-1h-1h-36.8h-1v1v69.5V1106.2 M936.6,1222.4h1h36.8h1v-1v-69.5v-1h-1
			h-36.8h-1v1v69.5V1222.4 M856.3,1222.4h1h36.8h1v-1v-69.5v-1h-1h-36.8h-1v1v69.5V1222.4 M776.1,1222.4h1h36.8h1v-1v-69.5v-1h-1
			h-36.8h-1v1v69.5V1222.4 M695.9,1222.4h1h36.8h1v-1v-69.5v-1h-1h-36.8h-1v1v69.5V1222.4 M615.6,1222.4h1h36.8h1v-1v-69.5v-1h-1
			h-36.8h-1v1v69.5V1222.4 M936.6,1338.6h1h36.8h1v-1v-69.5v-1h-1h-36.8h-1v1v69.5V1338.6 M856.3,1338.6h1h36.8h1v-1v-69.5v-1h-1
			h-36.8h-1v1v69.5V1338.6 M776.1,1338.6h1h36.8h1v-1v-69.5v-1h-1h-36.8h-1v1v69.5V1338.6 M695.9,1338.6h1h36.8h1v-1v-69.5v-1h-1
			h-36.8h-1v1v69.5V1338.6 M615.6,1338.6h1h36.8h1v-1v-69.5v-1h-1h-36.8h-1v1v69.5V1338.6 M936.6,1453.9h1h36.8h1v-1v-69.5v-1h-1
			h-36.8h-1v1v69.5V1453.9 M856.3,1453.9h1h36.8h1v-1v-69.5v-1h-1h-36.8h-1v1v69.5V1453.9 M776.1,1453.9h1h36.8h1v-1v-69.5v-1h-1
			h-36.8h-1v1v69.5V1453.9 M695.9,1453.9h1h36.8h1v-1v-69.5v-1h-1h-36.8h-1v1v69.5V1453.9 M615.6,1453.9h1h36.8h1v-1v-69.5v-1h-1
			h-36.8h-1v1v69.5V1453.9 M976,145H611.8c-26.5,0-48,21.5-48,48v1443.9c0,5.7,4.6,10.2,10.2,10.2h180.2v-129.7h79.5v129.7h180.7
			c5.4,0,9.7-4.4,9.7-9.7V193C1024,166.5,1002.5,145,976,145L976,145z M937.6,293.6v-69.5h36.8v69.5H937.6L937.6,293.6z
			 M857.3,293.6v-69.5h36.8v69.5H857.3L857.3,293.6z M777.1,293.6v-69.5h36.8v69.5H777.1L777.1,293.6z M696.9,293.6v-69.5h36.8v69.5
			H696.9L696.9,293.6z M616.6,293.6v-69.5h36.8v69.5H616.6L616.6,293.6z M934.3,409.8v-69.5h36.8v69.5H934.3L934.3,409.8z
			 M854.1,409.8v-69.5h36.8v69.5H854.1L854.1,409.8z M773.9,409.8v-69.5h36.8v69.5H773.9L773.9,409.8z M693.6,409.8v-69.5h36.8v69.5
			H693.6L693.6,409.8z M613.4,409.8v-69.5h36.8v69.5H613.4L613.4,409.8z M934.3,526v-69.5h36.8V526H934.3L934.3,526z M854.1,526
			v-69.5h36.8V526H854.1L854.1,526z M773.9,526v-69.5h36.8V526H773.9L773.9,526z M693.6,526v-69.5h36.8V526H693.6L693.6,526z
			 M613.4,526v-69.5h36.8V526H613.4L613.4,526z M937.6,642.2v-69.5h36.8v69.5H937.6L937.6,642.2z M857.3,642.2v-69.5h36.8v69.5
			H857.3L857.3,642.2z M777.1,642.2v-69.5h36.8v69.5H777.1L777.1,642.2z M696.9,642.2v-69.5h36.8v69.5H696.9L696.9,642.2z
			 M616.6,642.2v-69.5h36.8v69.5H616.6L616.6,642.2z M934.3,758.4v-69.5h36.8v69.5H934.3L934.3,758.4z M854.1,758.4v-69.5h36.8v69.5
			H854.1L854.1,758.4z M773.9,758.4v-69.5h36.8v69.5H773.9L773.9,758.4z M693.6,758.4v-69.5h36.8v69.5H693.6L693.6,758.4z
			 M613.4,758.4v-69.5h36.8v69.5H613.4L613.4,758.4z M937.6,872.8v-69.5h36.8v69.5H937.6L937.6,872.8z M857.3,872.8v-69.5h36.8v69.5
			H857.3L857.3,872.8z M777.1,872.8v-69.5h36.8v69.5H777.1L777.1,872.8z M696.9,872.8v-69.5h36.8v69.5H696.9L696.9,872.8z
			 M616.6,872.8v-69.5h36.8v69.5H616.6L616.6,872.8z M937.6,989v-69.5h36.8V989H937.6L937.6,989z M857.3,989v-69.5h36.8V989H857.3
			L857.3,989z M777.1,989v-69.5h36.8V989H777.1L777.1,989z M696.9,989v-69.5h36.8V989H696.9L696.9,989z M616.6,989v-69.5h36.8V989
			H616.6L616.6,989z M937.6,1105.2v-69.5h36.8v69.5H937.6L937.6,1105.2z M857.3,1105.2v-69.5h36.8v69.5H857.3L857.3,1105.2z
			 M777.1,1105.2v-69.5h36.8v69.5H777.1L777.1,1105.2z M696.9,1105.2v-69.5h36.8v69.5H696.9L696.9,1105.2z M616.6,1105.2v-69.5h36.8
			v69.5H616.6L616.6,1105.2z M937.6,1221.4v-69.5h36.8v69.5H937.6L937.6,1221.4z M857.3,1221.4v-69.5h36.8v69.5H857.3L857.3,1221.4z
			 M777.1,1221.4v-69.5h36.8v69.5H777.1L777.1,1221.4z M696.9,1221.4v-69.5h36.8v69.5H696.9L696.9,1221.4z M616.6,1221.4v-69.5h36.8
			v69.5H616.6L616.6,1221.4z M937.6,1337.6v-69.5h36.8v69.5H937.6L937.6,1337.6z M857.3,1337.6v-69.5h36.8v69.5H857.3L857.3,1337.6z
			 M777.1,1337.6v-69.5h36.8v69.5H777.1L777.1,1337.6z M696.9,1337.6v-69.5h36.8v69.5H696.9L696.9,1337.6z M616.6,1337.6v-69.5h36.8
			v69.5H616.6L616.6,1337.6z M937.6,1452.9v-69.5h36.8v69.5H937.6L937.6,1452.9z M857.3,1452.9v-69.5h36.8v69.5H857.3L857.3,1452.9z
			 M777.1,1452.9v-69.5h36.8v69.5H777.1L777.1,1452.9z M696.9,1452.9v-69.5h36.8v69.5H696.9L696.9,1452.9z M616.6,1452.9v-69.5h36.8
			v69.5H616.6L616.6,1452.9z"/>
	</g>
</g>
<g class="st0">
	<g>
		<path class="st1" d="M305.4,1649.9v-129.7h-80.5v129.7H10.2c-5.4,0-9.7-4.4-9.7-9.7V672.4c0-26.2,21.3-47.5,47.5-47.5h434.3
			c26.2,0,47.5,21.3,47.5,47.5v968.3c0,5.1-4.1,9.2-9.2,9.2H305.4z M40.8,1457.5h37.8v-70.5H40.8V1457.5z M443.4,1456.6h37.8v-70.5
			h-37.8V1456.6z M363.1,1456.6h37.8v-70.5h-37.8V1456.6z M282.9,1456.6h37.8v-70.5h-37.8V1456.6z M202.6,1456.6h37.8v-70.5h-37.8
			V1456.6z M122.4,1456.6h37.8v-70.5h-37.8V1456.6z M443.4,1341.3h37.8v-70.5h-37.8V1341.3z M363.1,1341.3h37.8v-70.5h-37.8V1341.3z
			 M282.9,1341.3h37.8v-70.5h-37.8V1341.3z M202.6,1341.3h37.8v-70.5h-37.8V1341.3z M122.4,1341.3h37.8v-70.5h-37.8V1341.3z
			 M40.8,1341.3h37.8v-70.5H40.8V1341.3z M443.4,1225.1h37.8v-70.5h-37.8V1225.1z M363.1,1225.1h37.8v-70.5h-37.8V1225.1z
			 M282.9,1225.1h37.8v-70.5h-37.8V1225.1z M202.6,1225.1h37.8v-70.5h-37.8V1225.1z M122.4,1225.1h37.8v-70.5h-37.8V1225.1z
			 M40.8,1225.1h37.8v-70.5H40.8V1225.1z M443.4,1108.9h37.8v-70.5h-37.8V1108.9z M363.1,1108.9h37.8v-70.5h-37.8V1108.9z
			 M282.9,1108.9h37.8v-70.5h-37.8V1108.9z M202.6,1108.9h37.8v-70.5h-37.8V1108.9z M122.4,1108.9h37.8v-70.5h-37.8V1108.9z
			 M40.8,1108.9h37.8v-70.5H40.8V1108.9z M443.4,992.7h37.8v-70.5h-37.8V992.7z M363.1,992.7h37.8v-70.5h-37.8V992.7z M282.9,992.7
			h37.8v-70.5h-37.8V992.7z M202.6,992.7h37.8v-70.5h-37.8V992.7z M122.4,992.7h37.8v-70.5h-37.8V992.7z M40.8,992.7h37.8v-70.5
			H40.8V992.7z M443.4,876.5h37.8v-70.5h-37.8V876.5z M363.1,876.5h37.8v-70.5h-37.8V876.5z M282.9,876.5h37.8v-70.5h-37.8V876.5z
			 M202.6,876.5h37.8v-70.5h-37.8V876.5z M122.4,876.5h37.8v-70.5h-37.8V876.5z M40.8,876.5h37.8v-70.5H40.8V876.5z M447.5,760.3
			h37.8v-70.5h-37.8V760.3z M367.3,760.3h37.8v-70.5h-37.8V760.3z M287,760.3h37.8v-70.5H287V760.3z M206.8,760.3h37.8v-70.5h-37.8
			V760.3z M126.6,760.3h37.8v-70.5h-37.8V760.3z M45,760.3h37.8v-70.5H45V760.3z"/>
	</g>
	<g>
		<path d="M482.3,625.3c25.9,0,47,21.1,47,47v968.3c0,4.8-3.9,8.7-8.7,8.7H305.9v-128.7v-1h-1h-79.5h-1v1v128.7H10.2
			c-5.1,0-9.2-4.1-9.2-9.2V672.4c0-25.9,21.1-47,47-47H482.3 M447,760.8h1h36.8h1v-1v-69.5v-1h-1H448h-1v1v69.5V760.8 M366.8,760.8
			h1h36.8h1v-1v-69.5v-1h-1h-36.8h-1v1v69.5V760.8 M286.5,760.8h1h36.8h1v-1v-69.5v-1h-1h-36.8h-1v1v69.5V760.8 M206.3,760.8h1h36.8
			h1v-1v-69.5v-1h-1h-36.8h-1v1v69.5V760.8 M126.1,760.8h1h36.8h1v-1v-69.5v-1h-1h-36.8h-1v1v69.5V760.8 M44.5,760.8h1h36.8h1v-1
			v-69.5v-1h-1H45.5h-1v1v69.5V760.8 M442.9,877h1h36.8h1v-1v-69.5v-1h-1h-36.8h-1v1V876V877 M362.6,877h1h36.8h1v-1v-69.5v-1h-1
			h-36.8h-1v1V876V877 M282.4,877h1h36.8h1v-1v-69.5v-1h-1h-36.8h-1v1V876V877 M202.1,877h1h36.8h1v-1v-69.5v-1h-1h-36.8h-1v1V876
			V877 M121.9,877h1h36.8h1v-1v-69.5v-1h-1h-36.8h-1v1V876V877 M40.3,877h1h36.8h1v-1v-69.5v-1h-1H41.3h-1v1V876V877 M442.9,993.2h1
			h36.8h1v-1v-69.5v-1h-1h-36.8h-1v1v69.5V993.2 M362.6,993.2h1h36.8h1v-1v-69.5v-1h-1h-36.8h-1v1v69.5V993.2 M282.4,993.2h1h36.8h1
			v-1v-69.5v-1h-1h-36.8h-1v1v69.5V993.2 M202.1,993.2h1h36.8h1v-1v-69.5v-1h-1h-36.8h-1v1v69.5V993.2 M121.9,993.2h1h36.8h1v-1
			v-69.5v-1h-1h-36.8h-1v1v69.5V993.2 M40.3,993.2h1h36.8h1v-1v-69.5v-1h-1H41.3h-1v1v69.5V993.2 M442.9,1109.4h1h36.8h1v-1V1039v-1
			h-1h-36.8h-1v1v69.5V1109.4 M362.6,1109.4h1h36.8h1v-1V1039v-1h-1h-36.8h-1v1v69.5V1109.4 M282.4,1109.4h1h36.8h1v-1V1039v-1h-1
			h-36.8h-1v1v69.5V1109.4 M202.1,1109.4h1h36.8h1v-1V1039v-1h-1h-36.8h-1v1v69.5V1109.4 M121.9,1109.4h1h36.8h1v-1V1039v-1h-1
			h-36.8h-1v1v69.5V1109.4 M40.3,1109.4h1h36.8h1v-1V1039v-1h-1H41.3h-1v1v69.5V1109.4 M442.9,1225.6h1h36.8h1v-1v-69.5v-1h-1h-36.8
			h-1v1v69.5V1225.6 M362.6,1225.6h1h36.8h1v-1v-69.5v-1h-1h-36.8h-1v1v69.5V1225.6 M282.4,1225.6h1h36.8h1v-1v-69.5v-1h-1h-36.8h-1
			v1v69.5V1225.6 M202.1,1225.6h1h36.8h1v-1v-69.5v-1h-1h-36.8h-1v1v69.5V1225.6 M121.9,1225.6h1h36.8h1v-1v-69.5v-1h-1h-36.8h-1v1
			v69.5V1225.6 M40.3,1225.6h1h36.8h1v-1v-69.5v-1h-1H41.3h-1v1v69.5V1225.6 M442.9,1341.8h1h36.8h1v-1v-69.5v-1h-1h-36.8h-1v1v69.5
			V1341.8 M362.6,1341.8h1h36.8h1v-1v-69.5v-1h-1h-36.8h-1v1v69.5V1341.8 M282.4,1341.8h1h36.8h1v-1v-69.5v-1h-1h-36.8h-1v1v69.5
			V1341.8 M202.1,1341.8h1h36.8h1v-1v-69.5v-1h-1h-36.8h-1v1v69.5V1341.8 M121.9,1341.8h1h36.8h1v-1v-69.5v-1h-1h-36.8h-1v1v69.5
			V1341.8 M40.3,1341.8h1h36.8h1v-1v-69.5v-1h-1H41.3h-1v1v69.5V1341.8 M442.9,1457.1h1h36.8h1v-1v-69.5v-1h-1h-36.8h-1v1v69.5
			V1457.1 M362.6,1457.1h1h36.8h1v-1v-69.5v-1h-1h-36.8h-1v1v69.5V1457.1 M282.4,1457.1h1h36.8h1v-1v-69.5v-1h-1h-36.8h-1v1v69.5
			V1457.1 M202.1,1457.1h1h36.8h1v-1v-69.5v-1h-1h-36.8h-1v1v69.5V1457.1 M121.9,1457.1h1h36.8h1v-1v-69.5v-1h-1h-36.8h-1v1v69.5
			V1457.1 M40.3,1458h1h36.8h1v-1v-69.5v-1h-1H41.3h-1v1v69.5V1458 M482.3,624.3H48c-26.5,0-48,21.5-48,48v967.8
			c0,5.7,4.6,10.2,10.2,10.2h215.2v-129.7h79.5v129.7h215.7c5.4,0,9.7-4.4,9.7-9.7V672.4C530.3,645.8,508.8,624.3,482.3,624.3
			L482.3,624.3z M448,759.8v-69.5h36.8v69.5H448L448,759.8z M367.8,759.8v-69.5h36.8v69.5H367.8L367.8,759.8z M287.5,759.8v-69.5
			h36.8v69.5H287.5L287.5,759.8z M207.3,759.8v-69.5h36.8v69.5H207.3L207.3,759.8z M127.1,759.8v-69.5h36.8v69.5H127.1L127.1,759.8z
			 M45.5,759.8v-69.5h36.8v69.5H45.5L45.5,759.8z M443.9,876v-69.5h36.8V876H443.9L443.9,876z M363.6,876v-69.5h36.8V876H363.6
			L363.6,876z M283.4,876v-69.5h36.8V876H283.4L283.4,876z M203.1,876v-69.5h36.8V876H203.1L203.1,876z M122.9,876v-69.5h36.8V876
			H122.9L122.9,876z M41.3,876v-69.5h36.8V876H41.3L41.3,876z M443.9,992.2v-69.5h36.8v69.5H443.9L443.9,992.2z M363.6,992.2v-69.5
			h36.8v69.5H363.6L363.6,992.2z M283.4,992.2v-69.5h36.8v69.5H283.4L283.4,992.2z M203.1,992.2v-69.5h36.8v69.5H203.1L203.1,992.2z
			 M122.9,992.2v-69.5h36.8v69.5H122.9L122.9,992.2z M41.3,992.2v-69.5h36.8v69.5H41.3L41.3,992.2z M443.9,1108.4V1039h36.8v69.5
			H443.9L443.9,1108.4z M363.6,1108.4V1039h36.8v69.5H363.6L363.6,1108.4z M283.4,1108.4V1039h36.8v69.5H283.4L283.4,1108.4z
			 M203.1,1108.4V1039h36.8v69.5H203.1L203.1,1108.4z M122.9,1108.4V1039h36.8v69.5H122.9L122.9,1108.4z M41.3,1108.4V1039h36.8
			v69.5H41.3L41.3,1108.4z M443.9,1224.6v-69.5h36.8v69.5H443.9L443.9,1224.6z M363.6,1224.6v-69.5h36.8v69.5H363.6L363.6,1224.6z
			 M283.4,1224.6v-69.5h36.8v69.5H283.4L283.4,1224.6z M203.1,1224.6v-69.5h36.8v69.5H203.1L203.1,1224.6z M122.9,1224.6v-69.5h36.8
			v69.5H122.9L122.9,1224.6z M41.3,1224.6v-69.5h36.8v69.5H41.3L41.3,1224.6z M443.9,1340.8v-69.5h36.8v69.5H443.9L443.9,1340.8z
			 M363.6,1340.8v-69.5h36.8v69.5H363.6L363.6,1340.8z M283.4,1340.8v-69.5h36.8v69.5H283.4L283.4,1340.8z M203.1,1340.8v-69.5h36.8
			v69.5H203.1L203.1,1340.8z M122.9,1340.8v-69.5h36.8v69.5H122.9L122.9,1340.8z M41.3,1340.8v-69.5h36.8v69.5H41.3L41.3,1340.8z
			 M443.9,1456.1v-69.5h36.8v69.5H443.9L443.9,1456.1z M363.6,1456.1v-69.5h36.8v69.5H363.6L363.6,1456.1z M283.4,1456.1v-69.5h36.8
			v69.5H283.4L283.4,1456.1z M203.1,1456.1v-69.5h36.8v69.5H203.1L203.1,1456.1z M122.9,1456.1v-69.5h36.8v69.5H122.9L122.9,1456.1z
			 M41.3,1457v-69.5h36.8v69.5H41.3L41.3,1457z"/>
	</g>
</g>
</svg>
