<?xml version="1.0" encoding="utf-8"?>
<!-- Generator: Adobe Illustrator 22.1.0, SVG Export Plug-In . SVG Version: 6.00 Build 0)  -->
<svg version="1.1"
	 id="Layer_1" xmlns:cc="http://creativecommons.org/ns#" xmlns:dc="http://purl.org/dc/elements/1.1/" xmlns:inkscape="http://www.inkscape.org/namespaces/inkscape" xmlns:rdf="http://www.w3.org/1999/02/22-rdf-syntax-ns#" xmlns:sodipodi="http://sodipodi.sourceforge.net/DTD/sodipodi-0.dtd" xmlns:svg="http://www.w3.org/2000/svg"
	 xmlns="http://www.w3.org/2000/svg" xmlns:xlink="http://www.w3.org/1999/xlink" x="0px" y="0px" viewBox="0 0 22.4 22.4"
	 style="enable-background:new 0 0 22.4 22.4;" xml:space="preserve">
<style type="text/css">
	.st0{fill:#F3FFBD;}
</style>
<path class="st0" d="M11.6,5.2c-3.1,0-5.7,2.5-5.7,5.7c0,3.1,2.5,5.7,5.7,5.7c0,0,0,0,0,0c3.1,0,5.7-2.5,5.7-5.7v0
	C17.3,7.8,14.7,5.2,11.6,5.2z M9.8,7.9c0.4,0,0.7,0.2,0.9,0.4c0.1,0.1,0.2,0.3,0.3,0.4c0.1,0.2,0,0.4-0.2,0.5
	c-0.2,0.1-0.4,0-0.5-0.2l0,0c0-0.1-0.1-0.1-0.1-0.2C10,8.7,9.9,8.7,9.8,8.7c-0.1,0-0.2,0.1-0.3,0.1c0,0-0.1,0.1-0.1,0.2
	C9.3,9.2,9,9.3,8.8,9.2C8.6,9.1,8.5,8.9,8.6,8.7c0.1-0.2,0.2-0.3,0.3-0.4C9.1,8,9.4,7.9,9.8,7.9z M13.4,7.9c0.4,0,0.7,0.2,0.9,0.4
	c0.1,0.1,0.2,0.3,0.3,0.4c0.1,0.2,0,0.4-0.2,0.5c-0.2,0.1-0.4,0-0.5-0.2c0-0.1-0.1-0.1-0.1-0.2c-0.1-0.1-0.2-0.1-0.3-0.1
	c-0.1,0-0.2,0.1-0.3,0.1c0,0-0.1,0.1-0.1,0.2c-0.1,0.2-0.3,0.3-0.5,0.2c-0.2-0.1-0.3-0.3-0.2-0.5l0,0c0.1-0.2,0.2-0.3,0.3-0.4
	C12.7,8,13.1,7.9,13.4,7.9z M9.6,12.1c0.1,0,0.3,0.1,0.3,0.2c0.1,0.1,0.2,0.2,0.2,0.3c0.4,0.3,0.9,0.6,1.5,0.6s1.1-0.2,1.5-0.6
	c0.1-0.1,0.2-0.2,0.2-0.3c0.1-0.2,0.4-0.2,0.6-0.1c0.2,0.1,0.2,0.4,0.1,0.6c-0.1,0.1-0.2,0.3-0.4,0.4c-0.5,0.5-1.2,0.8-2,0.8
	s-1.5-0.3-2-0.8c-0.1-0.1-0.2-0.3-0.4-0.4c-0.1-0.2-0.1-0.4,0.1-0.6C9.4,12.1,9.5,12.1,9.6,12.1z"/>
<path class="st0" d="M11.6,0c-0.3,0-0.5,0.2-0.5,0.5v3c0,0.3,0.2,0.5,0.5,0.5c0.3,0,0.5-0.2,0.5-0.5c0,0,0,0,0,0v-3
	C12.1,0.2,11.9,0,11.6,0C11.6,0,11.6,0,11.6,0z"/>
<path class="st0" d="M11.6,18.3c-0.3,0-0.5,0.2-0.5,0.5v3.1c0,0.3,0.2,0.5,0.5,0.5c0.3,0,0.5-0.2,0.5-0.5c0,0,0,0,0,0v-3.1
	C12.1,18.5,11.9,18.3,11.6,18.3C11.6,18.3,11.6,18.3,11.6,18.3z"/>
<path class="st0" d="M0.6,10.6C0.3,10.6,0,10.8,0,11c0,0.3,0.3,0.5,0.6,0.5c0,0,0,0,0,0h3.7c0.3,0,0.6-0.2,0.6-0.4
	c0-0.3-0.3-0.5-0.6-0.5c0,0,0,0,0,0H0.6z"/>
<path class="st0" d="M18.9,10.4c-0.3,0-0.5,0.2-0.5,0.5c0,0.3,0.2,0.5,0.5,0.5c0,0,0,0,0,0h3c0.3,0,0.5-0.2,0.5-0.5
	c0-0.3-0.2-0.5-0.5-0.5c0,0,0,0,0,0H18.9z"/>
<path class="st0" d="M18.9,3.2c-0.1,0-0.3,0.1-0.3,0.2l-2,2c-0.2,0.2-0.2,0.5,0,0.7c0.2,0.2,0.5,0.2,0.7,0c0,0,0,0,0,0l2-2
	c0.2-0.2,0.2-0.5,0-0.7C19.2,3.3,19.1,3.2,18.9,3.2z"/>
<path class="st0" d="M3.9,2.5c-0.3,0-0.5,0.2-0.5,0.6c0,0.1,0.1,0.3,0.2,0.4l2.2,2.2c0.2,0.2,0.6,0.2,0.8,0c0.2-0.2,0.2-0.6,0-0.8
	c0,0,0,0,0,0L4.3,2.7C4.2,2.6,4,2.5,3.9,2.5z"/>
<path class="st0" d="M7,16.2C6.8,16,6.5,16,6.2,16.1l-2.6,1.9c-0.2,0.2-0.3,0.5-0.2,0.7c0.2,0.2,0.5,0.3,0.7,0.1c0,0,0,0,0,0L6.8,17
	C7.1,16.8,7.1,16.4,7,16.2C7,16.2,7,16.2,7,16.2z"/>
<path class="st0" d="M16.5,16.1c-0.2,0.2-0.2,0.5,0,0.8l2.4,2.9c0.2,0.3,0.6,0.3,0.8,0.2c0.2-0.2,0.2-0.5,0-0.8c0,0,0,0,0,0
	l-2.4-2.9C17.1,16,16.8,15.9,16.5,16.1C16.5,16.1,16.5,16.1,16.5,16.1z"/>
</svg>
