<?xml version="1.0" encoding="utf-8"?>
<!-- Generator: Adobe Illustrator 22.1.0, SVG Export Plug-In . SVG Version: 6.00 Build 0)  -->
<svg version="1.1" id="Layer_1" xmlns="http://www.w3.org/2000/svg" xmlns:xlink="http://www.w3.org/1999/xlink" x="0px" y="0px"
	 viewBox="0 0 1024 1648.7" style="enable-background:new 0 0 1024 1648.7;" xml:space="preserve">
<style type="text/css">
	.st0{opacity:0.9;}
	.st1{fill:#E3E3E3;}
</style>
<g class="st0">
	<g>
		<path class="st1" d="M270.4,1648.2v-130.9h-80.5v130.9H10.2c-5.4,0-9.7-4.4-9.7-9.7V67.4c0-26.2,21.3-47.5,47.5-47.5h364.2
			c26.2,0,47.5,21.3,47.5,47.5V1639c0,5.1-4.1,9.2-9.2,9.2H270.4z M373.3,1453.1h37.8V1382h-37.8V1453.1z M293.1,1453.1h37.8V1382
			h-37.8V1453.1z M212.8,1453.1h37.8V1382h-37.8V1453.1z M132.6,1453.1h37.8V1382h-37.8V1453.1z M52.4,1453.1h37.8V1382H52.4V1453.1
			z M373.3,1336.7h37.8v-71.1h-37.8V1336.7z M293.1,1336.7h37.8v-71.1h-37.8V1336.7z M212.8,1336.7h37.8v-71.1h-37.8V1336.7z
			 M132.6,1336.7h37.8v-71.1h-37.8V1336.7z M52.4,1336.7h37.8v-71.1H52.4V1336.7z M373.3,1219.5h37.8v-71.1h-37.8V1219.5z
			 M293.1,1219.5h37.8v-71.1h-37.8V1219.5z M212.8,1219.5h37.8v-71.1h-37.8V1219.5z M132.6,1219.5h37.8v-71.1h-37.8V1219.5z
			 M52.4,1219.5h37.8v-71.1H52.4V1219.5z M373.3,1102.2h37.8v-71.1h-37.8V1102.2z M293.1,1102.2h37.8v-71.1h-37.8V1102.2z
			 M212.8,1102.2h37.8v-71.1h-37.8V1102.2z M132.6,1102.2h37.8v-71.1h-37.8V1102.2z M52.4,1102.2h37.8v-71.1H52.4V1102.2z
			 M373.3,984.9h37.8v-71.1h-37.8V984.9z M293.1,984.9h37.8v-71.1h-37.8V984.9z M212.8,984.9h37.8v-71.1h-37.8V984.9z M132.6,984.9
			h37.8v-71.1h-37.8V984.9z M52.4,984.9h37.8v-71.1H52.4V984.9z M373.3,867.6h37.8v-71.1h-37.8V867.6z M293.1,867.6h37.8v-71.1
			h-37.8V867.6z M212.8,867.6h37.8v-71.1h-37.8V867.6z M132.6,867.6h37.8v-71.1h-37.8V867.6z M52.4,867.6h37.8v-71.1H52.4V867.6z
			 M370.1,752.2h37.8V681h-37.8V752.2z M289.8,752.2h37.8V681h-37.8V752.2z M209.6,752.2h37.8V681h-37.8V752.2z M129.4,752.2h37.8
			V681h-37.8V752.2z M49.1,752.2h37.8V681H49.1V752.2z M373.3,634.9h37.8v-71.1h-37.8V634.9z M293.1,634.9h37.8v-71.1h-37.8V634.9z
			 M212.8,634.9h37.8v-71.1h-37.8V634.9z M132.6,634.9h37.8v-71.1h-37.8V634.9z M52.4,634.9h37.8v-71.1H52.4V634.9z M370.1,517.6
			h37.8v-71.1h-37.8V517.6z M289.8,517.6h37.8v-71.1h-37.8V517.6z M209.6,517.6h37.8v-71.1h-37.8V517.6z M129.4,517.6h37.8v-71.1
			h-37.8V517.6z M49.1,517.6h37.8v-71.1H49.1V517.6z M370.1,400.3h37.8v-71.1h-37.8V400.3z M289.8,400.3h37.8v-71.1h-37.8V400.3z
			 M209.6,400.3h37.8v-71.1h-37.8V400.3z M129.4,400.3h37.8v-71.1h-37.8V400.3z M49.1,400.3h37.8v-71.1H49.1V400.3z M373.3,283h37.8
			v-71.1h-37.8V283z M293.1,283h37.8v-71.1h-37.8V283z M212.8,283h37.8v-71.1h-37.8V283z M132.6,283h37.8v-71.1h-37.8V283z
			 M52.4,283h37.8v-71.1H52.4V283z M373.3,165.7h37.8V94.6h-37.8V165.7z M293.1,165.7h37.8V94.6h-37.8V165.7z M212.8,165.7h37.8
			V94.6h-37.8V165.7z M132.6,165.7h37.8V94.6h-37.8V165.7z M52.4,165.7h37.8V94.6H52.4V165.7z"/>
	</g>
	<g>
		<path d="M412.2,20.4c25.9,0,47,21.1,47,47V1639c0,4.8-3.9,8.7-8.7,8.7H270.9v-129.9v-1h-1h-79.5h-1v1v129.9H10.2
			c-5.1,0-9.2-4.1-9.2-9.2V67.4c0-25.9,21.1-47,47-47H412.2 M372.8,166.2h1h36.8h1v-1V95.1v-1h-1h-36.8h-1v1v70.1V166.2
			 M292.6,166.2h1h36.8h1v-1V95.1v-1h-1h-36.8h-1v1v70.1V166.2 M212.3,166.2h1h36.8h1v-1V95.1v-1h-1h-36.8h-1v1v70.1V166.2
			 M132.1,166.2h1h36.8h1v-1V95.1v-1h-1h-36.8h-1v1v70.1V166.2 M51.9,166.2h1h36.8h1v-1V95.1v-1h-1H52.9h-1v1v70.1V166.2
			 M372.8,283.5h1h36.8h1v-1v-70.1v-1h-1h-36.8h-1v1v70.1V283.5 M292.6,283.5h1h36.8h1v-1v-70.1v-1h-1h-36.8h-1v1v70.1V283.5
			 M212.3,283.5h1h36.8h1v-1v-70.1v-1h-1h-36.8h-1v1v70.1V283.5 M132.1,283.5h1h36.8h1v-1v-70.1v-1h-1h-36.8h-1v1v70.1V283.5
			 M51.9,283.5h1h36.8h1v-1v-70.1v-1h-1H52.9h-1v1v70.1V283.5 M369.6,400.8h1h36.8h1v-1v-70.1v-1h-1h-36.8h-1v1v70.1V400.8
			 M289.3,400.8h1h36.8h1v-1v-70.1v-1h-1h-36.8h-1v1v70.1V400.8 M209.1,400.8h1h36.8h1v-1v-70.1v-1h-1h-36.8h-1v1v70.1V400.8
			 M128.9,400.8h1h36.8h1v-1v-70.1v-1h-1h-36.8h-1v1v70.1V400.8 M48.6,400.8h1h36.8h1v-1v-70.1v-1h-1H49.6h-1v1v70.1V400.8
			 M369.6,518.1h1h36.8h1v-1V447v-1h-1h-36.8h-1v1v70.1V518.1 M289.3,518.1h1h36.8h1v-1V447v-1h-1h-36.8h-1v1v70.1V518.1
			 M209.1,518.1h1h36.8h1v-1V447v-1h-1h-36.8h-1v1v70.1V518.1 M128.9,518.1h1h36.8h1v-1V447v-1h-1h-36.8h-1v1v70.1V518.1
			 M48.6,518.1h1h36.8h1v-1V447v-1h-1H49.6h-1v1v70.1V518.1 M372.8,635.4h1h36.8h1v-1v-70.1v-1h-1h-36.8h-1v1v70.1V635.4
			 M292.6,635.4h1h36.8h1v-1v-70.1v-1h-1h-36.8h-1v1v70.1V635.4 M212.3,635.4h1h36.8h1v-1v-70.1v-1h-1h-36.8h-1v1v70.1V635.4
			 M132.1,635.4h1h36.8h1v-1v-70.1v-1h-1h-36.8h-1v1v70.1V635.4 M51.9,635.4h1h36.8h1v-1v-70.1v-1h-1H52.9h-1v1v70.1V635.4
			 M369.6,752.7h1h36.8h1v-1v-70.1v-1h-1h-36.8h-1v1v70.1V752.7 M289.3,752.7h1h36.8h1v-1v-70.1v-1h-1h-36.8h-1v1v70.1V752.7
			 M209.1,752.7h1h36.8h1v-1v-70.1v-1h-1h-36.8h-1v1v70.1V752.7 M128.9,752.7h1h36.8h1v-1v-70.1v-1h-1h-36.8h-1v1v70.1V752.7
			 M48.6,752.7h1h36.8h1v-1v-70.1v-1h-1H49.6h-1v1v70.1V752.7 M372.8,868.1h1h36.8h1v-1V797v-1h-1h-36.8h-1v1v70.1V868.1
			 M292.6,868.1h1h36.8h1v-1V797v-1h-1h-36.8h-1v1v70.1V868.1 M212.3,868.1h1h36.8h1v-1V797v-1h-1h-36.8h-1v1v70.1V868.1
			 M132.1,868.1h1h36.8h1v-1V797v-1h-1h-36.8h-1v1v70.1V868.1 M51.9,868.1h1h36.8h1v-1V797v-1h-1H52.9h-1v1v70.1V868.1 M372.8,985.4
			h1h36.8h1v-1v-70.1v-1h-1h-36.8h-1v1v70.1V985.4 M292.6,985.4h1h36.8h1v-1v-70.1v-1h-1h-36.8h-1v1v70.1V985.4 M212.3,985.4h1h36.8
			h1v-1v-70.1v-1h-1h-36.8h-1v1v70.1V985.4 M132.1,985.4h1h36.8h1v-1v-70.1v-1h-1h-36.8h-1v1v70.1V985.4 M51.9,985.4h1h36.8h1v-1
			v-70.1v-1h-1H52.9h-1v1v70.1V985.4 M372.8,1102.7h1h36.8h1v-1v-70.1v-1h-1h-36.8h-1v1v70.1V1102.7 M292.6,1102.7h1h36.8h1v-1
			v-70.1v-1h-1h-36.8h-1v1v70.1V1102.7 M212.3,1102.7h1h36.8h1v-1v-70.1v-1h-1h-36.8h-1v1v70.1V1102.7 M132.1,1102.7h1h36.8h1v-1
			v-70.1v-1h-1h-36.8h-1v1v70.1V1102.7 M51.9,1102.7h1h36.8h1v-1v-70.1v-1h-1H52.9h-1v1v70.1V1102.7 M372.8,1220h1h36.8h1v-1v-70.1
			v-1h-1h-36.8h-1v1v70.1V1220 M292.6,1220h1h36.8h1v-1v-70.1v-1h-1h-36.8h-1v1v70.1V1220 M212.3,1220h1h36.8h1v-1v-70.1v-1h-1
			h-36.8h-1v1v70.1V1220 M132.1,1220h1h36.8h1v-1v-70.1v-1h-1h-36.8h-1v1v70.1V1220 M51.9,1220h1h36.8h1v-1v-70.1v-1h-1H52.9h-1v1
			v70.1V1220 M372.8,1337.2h1h36.8h1v-1v-70.1v-1h-1h-36.8h-1v1v70.1V1337.2 M292.6,1337.2h1h36.8h1v-1v-70.1v-1h-1h-36.8h-1v1v70.1
			V1337.2 M212.3,1337.2h1h36.8h1v-1v-70.1v-1h-1h-36.8h-1v1v70.1V1337.2 M132.1,1337.2h1h36.8h1v-1v-70.1v-1h-1h-36.8h-1v1v70.1
			V1337.2 M51.9,1337.2h1h36.8h1v-1v-70.1v-1h-1H52.9h-1v1v70.1V1337.2 M372.8,1453.6h1h36.8h1v-1v-70.1v-1h-1h-36.8h-1v1v70.1
			V1453.6 M292.6,1453.6h1h36.8h1v-1v-70.1v-1h-1h-36.8h-1v1v70.1V1453.6 M212.3,1453.6h1h36.8h1v-1v-70.1v-1h-1h-36.8h-1v1v70.1
			V1453.6 M132.1,1453.6h1h36.8h1v-1v-70.1v-1h-1h-36.8h-1v1v70.1V1453.6 M51.9,1453.6h1h36.8h1v-1v-70.1v-1h-1H52.9h-1v1v70.1
			V1453.6 M412.2,19.4H48c-26.5,0-48,21.5-48,48v1571.1c0,5.7,4.6,10.2,10.2,10.2h180.2v-130.9h79.5v130.9h180.7
			c5.4,0,9.7-4.4,9.7-9.7V67.4C460.2,40.9,438.8,19.4,412.2,19.4L412.2,19.4z M373.8,165.2V95.1h36.8v70.1H373.8L373.8,165.2z
			 M293.6,165.2V95.1h36.8v70.1H293.6L293.6,165.2z M213.3,165.2V95.1h36.8v70.1H213.3L213.3,165.2z M133.1,165.2V95.1h36.8v70.1
			H133.1L133.1,165.2z M52.9,165.2V95.1h36.8v70.1H52.9L52.9,165.2z M373.8,282.5v-70.1h36.8v70.1H373.8L373.8,282.5z M293.6,282.5
			v-70.1h36.8v70.1H293.6L293.6,282.5z M213.3,282.5v-70.1h36.8v70.1H213.3L213.3,282.5z M133.1,282.5v-70.1h36.8v70.1H133.1
			L133.1,282.5z M52.9,282.5v-70.1h36.8v70.1H52.9L52.9,282.5z M370.6,399.8v-70.1h36.8v70.1H370.6L370.6,399.8z M290.3,399.8v-70.1
			h36.8v70.1H290.3L290.3,399.8z M210.1,399.8v-70.1h36.8v70.1H210.1L210.1,399.8z M129.9,399.8v-70.1h36.8v70.1H129.9L129.9,399.8z
			 M49.6,399.8v-70.1h36.8v70.1H49.6L49.6,399.8z M370.6,517.1V447h36.8v70.1H370.6L370.6,517.1z M290.3,517.1V447h36.8v70.1H290.3
			L290.3,517.1z M210.1,517.1V447h36.8v70.1H210.1L210.1,517.1z M129.9,517.1V447h36.8v70.1H129.9L129.9,517.1z M49.6,517.1V447
			h36.8v70.1H49.6L49.6,517.1z M373.8,634.4v-70.1h36.8v70.1H373.8L373.8,634.4z M293.6,634.4v-70.1h36.8v70.1H293.6L293.6,634.4z
			 M213.3,634.4v-70.1h36.8v70.1H213.3L213.3,634.4z M133.1,634.4v-70.1h36.8v70.1H133.1L133.1,634.4z M52.9,634.4v-70.1h36.8v70.1
			H52.9L52.9,634.4z M370.6,751.7v-70.1h36.8v70.1H370.6L370.6,751.7z M290.3,751.7v-70.1h36.8v70.1H290.3L290.3,751.7z
			 M210.1,751.7v-70.1h36.8v70.1H210.1L210.1,751.7z M129.9,751.7v-70.1h36.8v70.1H129.9L129.9,751.7z M49.6,751.7v-70.1h36.8v70.1
			H49.6L49.6,751.7z M373.8,867.1V797h36.8v70.1H373.8L373.8,867.1z M293.6,867.1V797h36.8v70.1H293.6L293.6,867.1z M213.3,867.1
			V797h36.8v70.1H213.3L213.3,867.1z M133.1,867.1V797h36.8v70.1H133.1L133.1,867.1z M52.9,867.1V797h36.8v70.1H52.9L52.9,867.1z
			 M373.8,984.4v-70.1h36.8v70.1H373.8L373.8,984.4z M293.6,984.4v-70.1h36.8v70.1H293.6L293.6,984.4z M213.3,984.4v-70.1h36.8v70.1
			H213.3L213.3,984.4z M133.1,984.4v-70.1h36.8v70.1H133.1L133.1,984.4z M52.9,984.4v-70.1h36.8v70.1H52.9L52.9,984.4z
			 M373.8,1101.7v-70.1h36.8v70.1H373.8L373.8,1101.7z M293.6,1101.7v-70.1h36.8v70.1H293.6L293.6,1101.7z M213.3,1101.7v-70.1h36.8
			v70.1H213.3L213.3,1101.7z M133.1,1101.7v-70.1h36.8v70.1H133.1L133.1,1101.7z M52.9,1101.7v-70.1h36.8v70.1H52.9L52.9,1101.7z
			 M373.8,1219v-70.1h36.8v70.1H373.8L373.8,1219z M293.6,1219v-70.1h36.8v70.1H293.6L293.6,1219z M213.3,1219v-70.1h36.8v70.1
			H213.3L213.3,1219z M133.1,1219v-70.1h36.8v70.1H133.1L133.1,1219z M52.9,1219v-70.1h36.8v70.1H52.9L52.9,1219z M373.8,1336.2
			v-70.1h36.8v70.1H373.8L373.8,1336.2z M293.6,1336.2v-70.1h36.8v70.1H293.6L293.6,1336.2z M213.3,1336.2v-70.1h36.8v70.1H213.3
			L213.3,1336.2z M133.1,1336.2v-70.1h36.8v70.1H133.1L133.1,1336.2z M52.9,1336.2v-70.1h36.8v70.1H52.9L52.9,1336.2z M373.8,1452.6
			v-70.1h36.8v70.1H373.8L373.8,1452.6z M293.6,1452.6v-70.1h36.8v70.1H293.6L293.6,1452.6z M213.3,1452.6v-70.1h36.8v70.1H213.3
			L213.3,1452.6z M133.1,1452.6v-70.1h36.8v70.1H133.1L133.1,1452.6z M52.9,1452.6v-70.1h36.8v70.1H52.9L52.9,1452.6z"/>
	</g>
</g>
<g class="st0">
	<g>
		<path class="st1" d="M799.7,1648.2v-130.9h-80.5v130.9H504.6c-5.4,0-9.7-4.4-9.7-9.7V781.2c0-26.2,21.3-47.5,47.5-47.5h434.3
			c26.2,0,47.5,21.3,47.5,47.5V1639c0,5.1-4.1,9.2-9.2,9.2H799.7z M535.2,1454H573v-71.1h-37.8V1454z M937.7,1453.1h37.8V1382h-37.8
			V1453.1z M857.5,1453.1h37.8V1382h-37.8V1453.1z M777.2,1453.1H815V1382h-37.8V1453.1z M697,1453.1h37.8V1382H697V1453.1z
			 M616.7,1453.1h37.8V1382h-37.8V1453.1z M937.7,1336.7h37.8v-71.1h-37.8V1336.7z M857.5,1336.7h37.8v-71.1h-37.8V1336.7z
			 M777.2,1336.7H815v-71.1h-37.8V1336.7z M697,1336.7h37.8v-71.1H697V1336.7z M616.7,1336.7h37.8v-71.1h-37.8V1336.7z
			 M535.2,1336.7H573v-71.1h-37.8V1336.7z M937.7,1219.5h37.8v-71.1h-37.8V1219.5z M857.5,1219.5h37.8v-71.1h-37.8V1219.5z
			 M777.2,1219.5H815v-71.1h-37.8V1219.5z M697,1219.5h37.8v-71.1H697V1219.5z M616.7,1219.5h37.8v-71.1h-37.8V1219.5z
			 M535.2,1219.5H573v-71.1h-37.8V1219.5z M937.7,1102.2h37.8v-71.1h-37.8V1102.2z M857.5,1102.2h37.8v-71.1h-37.8V1102.2z
			 M777.2,1102.2H815v-71.1h-37.8V1102.2z M697,1102.2h37.8v-71.1H697V1102.2z M616.7,1102.2h37.8v-71.1h-37.8V1102.2z
			 M535.2,1102.2H573v-71.1h-37.8V1102.2z M937.7,984.9h37.8v-71.1h-37.8V984.9z M857.5,984.9h37.8v-71.1h-37.8V984.9z M777.2,984.9
			H815v-71.1h-37.8V984.9z M697,984.9h37.8v-71.1H697V984.9z M616.7,984.9h37.8v-71.1h-37.8V984.9z M535.2,984.9H573v-71.1h-37.8
			V984.9z M937.7,867.6h37.8v-71.1h-37.8V867.6z M857.5,867.6h37.8v-71.1h-37.8V867.6z M777.2,867.6H815v-71.1h-37.8V867.6z
			 M697,867.6h37.8v-71.1H697V867.6z M616.7,867.6h37.8v-71.1h-37.8V867.6z M535.2,867.6H573v-71.1h-37.8V867.6z"/>
	</g>
	<g>
		<path d="M976.6,734.1c25.9,0,47,21.1,47,47V1639c0,4.8-3.9,8.7-8.7,8.7H800.2v-129.9v-1h-1h-79.5h-1v1v129.9H504.6
			c-5.1,0-9.2-4.1-9.2-9.2V781.2c0-25.9,21.1-47,47-47H976.6 M937.2,868.1h1H975h1v-1V797v-1h-1h-36.8h-1v1v70.1V868.1 M857,868.1h1
			h36.8h1v-1V797v-1h-1H858h-1v1v70.1V868.1 M776.7,868.1h1h36.8h1v-1V797v-1h-1h-36.8h-1v1v70.1V868.1 M696.5,868.1h1h36.8h1v-1
			V797v-1h-1h-36.8h-1v1v70.1V868.1 M616.2,868.1h1H654h1v-1V797v-1h-1h-36.8h-1v1v70.1V868.1 M534.7,868.1h1h36.8h1v-1V797v-1h-1
			h-36.8h-1v1v70.1V868.1 M937.2,985.4h1H975h1v-1v-70.1v-1h-1h-36.8h-1v1v70.1V985.4 M857,985.4h1h36.8h1v-1v-70.1v-1h-1H858h-1v1
			v70.1V985.4 M776.7,985.4h1h36.8h1v-1v-70.1v-1h-1h-36.8h-1v1v70.1V985.4 M696.5,985.4h1h36.8h1v-1v-70.1v-1h-1h-36.8h-1v1v70.1
			V985.4 M616.2,985.4h1H654h1v-1v-70.1v-1h-1h-36.8h-1v1v70.1V985.4 M534.7,985.4h1h36.8h1v-1v-70.1v-1h-1h-36.8h-1v1v70.1V985.4
			 M937.2,1102.7h1H975h1v-1v-70.1v-1h-1h-36.8h-1v1v70.1V1102.7 M857,1102.7h1h36.8h1v-1v-70.1v-1h-1H858h-1v1v70.1V1102.7
			 M776.7,1102.7h1h36.8h1v-1v-70.1v-1h-1h-36.8h-1v1v70.1V1102.7 M696.5,1102.7h1h36.8h1v-1v-70.1v-1h-1h-36.8h-1v1v70.1V1102.7
			 M616.2,1102.7h1H654h1v-1v-70.1v-1h-1h-36.8h-1v1v70.1V1102.7 M534.7,1102.7h1h36.8h1v-1v-70.1v-1h-1h-36.8h-1v1v70.1V1102.7
			 M937.2,1220h1H975h1v-1v-70.1v-1h-1h-36.8h-1v1v70.1V1220 M857,1220h1h36.8h1v-1v-70.1v-1h-1H858h-1v1v70.1V1220 M776.7,1220h1
			h36.8h1v-1v-70.1v-1h-1h-36.8h-1v1v70.1V1220 M696.5,1220h1h36.8h1v-1v-70.1v-1h-1h-36.8h-1v1v70.1V1220 M616.2,1220h1H654h1v-1
			v-70.1v-1h-1h-36.8h-1v1v70.1V1220 M534.7,1220h1h36.8h1v-1v-70.1v-1h-1h-36.8h-1v1v70.1V1220 M937.2,1337.2h1H975h1v-1v-70.1v-1
			h-1h-36.8h-1v1v70.1V1337.2 M857,1337.2h1h36.8h1v-1v-70.1v-1h-1H858h-1v1v70.1V1337.2 M776.7,1337.2h1h36.8h1v-1v-70.1v-1h-1
			h-36.8h-1v1v70.1V1337.2 M696.5,1337.2h1h36.8h1v-1v-70.1v-1h-1h-36.8h-1v1v70.1V1337.2 M616.2,1337.2h1H654h1v-1v-70.1v-1h-1
			h-36.8h-1v1v70.1V1337.2 M534.7,1337.2h1h36.8h1v-1v-70.1v-1h-1h-36.8h-1v1v70.1V1337.2 M937.2,1453.6h1H975h1v-1v-70.1v-1h-1
			h-36.8h-1v1v70.1V1453.6 M857,1453.6h1h36.8h1v-1v-70.1v-1h-1H858h-1v1v70.1V1453.6 M776.7,1453.6h1h36.8h1v-1v-70.1v-1h-1h-36.8
			h-1v1v70.1V1453.6 M696.5,1453.6h1h36.8h1v-1v-70.1v-1h-1h-36.8h-1v1v70.1V1453.6 M616.2,1453.6h1H654h1v-1v-70.1v-1h-1h-36.8h-1
			v1v70.1V1453.6 M534.7,1454.5h1h36.8h1v-1v-70.1v-1h-1h-36.8h-1v1v70.1V1454.5 M976.6,733.1H542.4c-26.5,0-48,21.5-48,48v857.3
			c0,5.7,4.6,10.2,10.2,10.2h215.2v-130.9h79.5v130.9h215.7c5.4,0,9.7-4.4,9.7-9.7V781.2C1024.6,754.6,1003.1,733.1,976.6,733.1
			L976.6,733.1z M938.2,867.1V797H975v70.1H938.2L938.2,867.1z M858,867.1V797h36.8v70.1H858L858,867.1z M777.7,867.1V797h36.8v70.1
			H777.7L777.7,867.1z M697.5,867.1V797h36.8v70.1H697.5L697.5,867.1z M617.2,867.1V797H654v70.1H617.2L617.2,867.1z M535.7,867.1
			V797h36.8v70.1H535.7L535.7,867.1z M938.2,984.4v-70.1H975v70.1H938.2L938.2,984.4z M858,984.4v-70.1h36.8v70.1H858L858,984.4z
			 M777.7,984.4v-70.1h36.8v70.1H777.7L777.7,984.4z M697.5,984.4v-70.1h36.8v70.1H697.5L697.5,984.4z M617.2,984.4v-70.1H654v70.1
			H617.2L617.2,984.4z M535.7,984.4v-70.1h36.8v70.1H535.7L535.7,984.4z M938.2,1101.7v-70.1H975v70.1H938.2L938.2,1101.7z
			 M858,1101.7v-70.1h36.8v70.1H858L858,1101.7z M777.7,1101.7v-70.1h36.8v70.1H777.7L777.7,1101.7z M697.5,1101.7v-70.1h36.8v70.1
			H697.5L697.5,1101.7z M617.2,1101.7v-70.1H654v70.1H617.2L617.2,1101.7z M535.7,1101.7v-70.1h36.8v70.1H535.7L535.7,1101.7z
			 M938.2,1219v-70.1H975v70.1H938.2L938.2,1219z M858,1219v-70.1h36.8v70.1H858L858,1219z M777.7,1219v-70.1h36.8v70.1H777.7
			L777.7,1219z M697.5,1219v-70.1h36.8v70.1H697.5L697.5,1219z M617.2,1219v-70.1H654v70.1H617.2L617.2,1219z M535.7,1219v-70.1
			h36.8v70.1H535.7L535.7,1219z M938.2,1336.2v-70.1H975v70.1H938.2L938.2,1336.2z M858,1336.2v-70.1h36.8v70.1H858L858,1336.2z
			 M777.7,1336.2v-70.1h36.8v70.1H777.7L777.7,1336.2z M697.5,1336.2v-70.1h36.8v70.1H697.5L697.5,1336.2z M617.2,1336.2v-70.1H654
			v70.1H617.2L617.2,1336.2z M535.7,1336.2v-70.1h36.8v70.1H535.7L535.7,1336.2z M938.2,1452.6v-70.1H975v70.1H938.2L938.2,1452.6z
			 M858,1452.6v-70.1h36.8v70.1H858L858,1452.6z M777.7,1452.6v-70.1h36.8v70.1H777.7L777.7,1452.6z M697.5,1452.6v-70.1h36.8v70.1
			H697.5L697.5,1452.6z M617.2,1452.6v-70.1H654v70.1H617.2L617.2,1452.6z M535.7,1453.5v-70.1h36.8v70.1H535.7L535.7,1453.5z"/>
	</g>
</g>
</svg>
