<?xml version="1.0" encoding="utf-8"?>
<!-- Generator: Adobe Illustrator 22.1.0, SVG Export Plug-In . SVG Version: 6.00 Build 0)  -->
<svg version="1.1" id="Layer_1" xmlns="http://www.w3.org/2000/svg" xmlns:xlink="http://www.w3.org/1999/xlink" x="0px" y="0px"
	 viewBox="0 0 512.7 92.3" style="enable-background:new 0 0 512.7 92.3;" xml:space="preserve">
<style type="text/css">
	.st0{fill:#E3E3E3;}
	.st1{fill:#CCCCCC;}
</style>
<g>
	<path class="st0" d="M51.9,38.5c-7.3,1.7-14.9,1.3-22.3,2.5c-6.8,1.2-13.2,3.4-19.2,6.4c-4.3,2.1-0.5,8.2,3.9,6
		c6.1-3,12.7-5.1,19.6-6c6.7-0.9,13.5-0.7,20.1-2.2C58.7,44.1,56.7,37.3,51.9,38.5z"/>
	<path class="st0" d="M265.6,45.6c-6.8-2.9-15-3.7-22.3-5.2c-4.2-0.9-8.4-1.8-12.6-2.7c-3.7-0.8-9.1-1.1-12.2-3.1
		c-4.1-2.6-7.9,3.5-3.9,6c3.9,2.5,9.5,2.8,14.1,3.8c6.3,1.3,12.6,2.7,18.9,4c5.1,1.1,12.1,1.5,16.4,4.2c3.5,2.2,9.3,10.5,5.2,13.8
		c-3.7,3,1.7,7.9,5.4,4.9C283.6,64.2,274.3,49.3,265.6,45.6z"/>
	<path class="st0" d="M220.7,33.9c-5.4,0-10.8-0.3-16.2-0.8c-1.1-0.1-2.2-0.2-3.4-0.3c-1.1-0.2-2.3-0.3-3.4-0.5
		c-2.6-0.5-5.1-1.3-7.1-2.9c-2.6-2.1-4.6-4-7.9-5.2c-4.2-1.6-8.7-2.2-13.1-3c-9.2-1.6-18.6-3.1-28-2.3c-9.2,0.7-18,3.7-26.8,6.1
		c-0.7,0.2-1.2,0.5-1.6,0.9c-0.3-1-1.1-1.9-2.6-2.2c-21-4.6-43.4-4.5-62.7,5.1c-4.3,2.2-0.5,8.2,3.9,6c17.5-8.7,37.8-8.5,56.8-4.4
		c1.6,0.3,2.9-0.2,3.7-1.1c0.5,1.7,2.2,3.1,4.6,2.5c8.7-2.4,17.6-5.5,26.8-6c10-0.5,20,1.4,29.7,3.3c4.5,0.9,7.9,2,11.3,4.9
		c2.6,2.1,4.7,3.8,8.2,4.6c4,1,8.2,1.6,12.5,1.9c5.4,0.8,10.7,1.5,16.3,0.4C226,40,224.9,33.9,220.7,33.9z"/>
	<g>
		<g>
			<path class="st0" d="M235.9,81.2c-6.3-0.6-12.3,0-18.7,1.1c-13.5,2.2-26.7,1.1-38.8-2.2c-2.6-0.8-4.3-0.6-6.6,0.3
				c-18.7,7.2-42.2,7.2-60.9,0c-2.3-0.8-4.3-0.8-6.6-0.6c-8,1.1-15.8,1.1-23.8,0c-2.6-0.3-4.9,0-7.2,0.6c-17.5,5.3-35.6,5.3-52.5,0
				C3.9,75.1-3.6,67.1-0.1,57.4c3.4-9.4,15.8-15.5,34.7-18c3.2-0.6,4.3-1.1,5.2-2.5c5.2-9.4,18.1-15.5,38.2-17.4
				c11.2-1.1,22.4-0.3,32.4,2.5c2.9,0.8,4,0.6,6-0.6c23.3-12.4,61.7-10.5,79.2,3.9c1.1,0.8,2.3,1.4,4.9,1.4
				c12.6,0.3,23.3,2.8,31.9,7.2c2,1.1,4,1.4,6.6,1.4c25,0.6,44.2,9.7,45.6,21.8c1.4,10.8-16.1,21-39.3,23.2
				C242.5,81.2,239.3,81.2,235.9,81.2z M49,31.7c1.7,0,2.6-0.8,4-1.1C67,25,82.8,23.7,99.8,27c3.4,0.6,6.3,0,8-2.2
				c1.1-1.7-2-1.7-3.7-2.2c-15.5-3-30.4-2.5-44.2,2.2C55.3,26.7,50.7,28.9,49,31.7c-0.3,0-0.6,0.3-0.6,0.6h0.3
				C48.7,32.2,49,32,49,31.7z M115.6,25.9c0.6-0.3,1.4-0.3,2-0.6c12.6-5.3,27.3-6.6,43.4-4.4c11.2,1.7,20.1,4.7,25.8,10
				c1.4,1.4,3.2,2.5,6.9,2.5c9.2,0.3,16.9,1.9,23.8,4.7c4.3,1.7,8.9,2.8,14.4,3c4.6,0,9.2,0.6,13.2,1.7c19.2,4.7,29.9,10.8,29,21
				c0,1.7-1.1,3.3-1.7,5c8.9-7.2,8-9.4,6-14.4c-3.7-9.1-20.4-14.9-38.5-16.9c-4.9-0.6-10,0.3-14.6-1.9c-7.2-3.9-16.4-6.6-27.8-6.6
				c-2.3,0-3.7-0.6-4.6-1.7c-2.3-3.3-8.3-5.3-13.5-7.2c-5.5-2.2-12.9-3-20.1-3.9c-13.2-1.4-24.7,1.1-35,4.4
				C120.4,21.7,116.1,23.1,115.6,25.9c-1.1,0-2.9,0-2,1.1C114.7,26.7,115,26.2,115.6,25.9z M199.4,58.8c5.7-5.3,4.6-13.8-2-18.8
				c-14.9-11.6-48.2-15.8-73.2-6.1c-1.1,0.6-2.6,0.8-1.4,1.7c0.9,0.6,2.3,0.3,3.4,0c13.5-4.1,27.8-4.4,42.5-2.2
				c12.6,1.9,21.8,6.1,27.6,11.6C200.5,49.4,201.4,54.1,199.4,58.8z M27.4,53.8c4.6-6.1,13.5-10.2,25-12.7c13.2-3,27-3.3,40.8-0.6
				c1.7,0.3,3.4,0.6,5.2,0.3c1.7-0.3,4-0.3,4.3-1.4c0.6-1.1-2-1.4-3.4-1.7c-18.9-5-40.8-3.9-57.4,2.8c-1.4,0.6-2,1.7-4.6,1.7
				c-0.6-0.8,1.1-1.4,0-2.5c-11.2,1.4-20.4,4.4-26.1,9.4c6.9-2.5,14.1-4.7,23.5-5.8C31.4,47.4,27.1,50.2,27.4,53.8z M26.3,55.5
				C26.3,55.2,26.6,55.2,26.3,55.5C26.3,55.2,26.3,55.2,26.3,55.5c-0.3-0.3-0.3,0-0.3,0C26.3,55.5,26.3,55.5,26.3,55.5z"/>
			<path class="st1" d="M115.3,25.6c0.9-2.5,5.2-3.9,8.9-5.3c10.3-3.3,21.8-5.8,35-4.4c7.2,0.8,14.6,1.7,20.1,3.9
				c5.2,1.9,10.9,4.1,13.5,7.2c0.9,1.1,2.3,1.7,4.6,1.7c11.5,0,20.7,2.8,28.4,6.4c4.6,2.2,9.8,1.4,14.6,1.9
				c17.8,1.9,34.7,8,38.5,16.9c2,5,2.9,7.2-6,14.4c0.6-1.7,1.4-3.3,1.7-5c0.9-10.5-10-16.6-29-21c-4.3-1.1-8.6-1.4-13.2-1.7
				c-5.7,0-10.3-1.1-14.4-3c-6.6-2.8-14.6-4.7-23.8-4.7c-3.7,0-5.5-1.4-6.9-2.5c-5.7-5-14.6-8.3-25.8-10
				c-16.1-2.2-30.7-0.8-43.4,4.4C117,25.6,116.1,25.6,115.3,25.6L115.3,25.6z"/>
			<path class="st1" d="M199.4,58.8c2-4.7,1.1-9.4-3.2-13.8c-5.7-5.8-14.9-9.7-27.6-11.6c-14.6-2.2-29-1.9-42.5,2.2
				c-1.1,0.3-2.6,0.6-3.4,0c-1.1-0.8,0.3-1.4,1.4-1.7c25-9.4,58.6-5.5,73.2,6.1C204.3,44.9,205.1,53.8,199.4,58.8z"/>
			<path class="st1" d="M27.4,53.8c-0.3-3.7,4-6.9,7.2-10.3c-9.5,0.9-16.4,3.4-23.5,6c5.7-5.1,14.9-8.3,26.1-9.7
				c1.1,0.9-0.6,1.7,0,2.6c2.3,0,3.2-1.1,4.6-1.7c16.7-6.6,38.5-8,57.4-2.9c1.4,0.3,3.7,0.6,3.4,1.7c-0.3,0.9-2.6,1.1-4.3,1.4
				c-1.7,0.3-3.4,0-5.2-0.3c-13.8-3.1-27.6-2.9-40.8,0.6C40.9,43.5,32,47.8,27.4,53.8z"/>
			<path class="st1" d="M49,31.7c2-3,6.3-5,11.2-6.6c13.5-4.7,28.7-5.3,44.2-2.2c1.7,0.3,4.9,0.6,3.7,2.2c-1.7,1.9-4.6,2.8-8,2.2
				c-17.2-3.3-32.7-2.2-46.8,3.6C51.5,31.1,50.7,31.7,49,31.7L49,31.7z"/>
			<path class="st1" d="M115.6,25.9c-0.6,0.3-0.6,1.1-2,1.1C112.4,25.9,114.1,25.9,115.6,25.9C115.3,25.6,115.6,25.9,115.6,25.9z"/>
			<path class="st1" d="M49,31.7c0,0.3-0.3,0.3-0.3,0.6h-0.3C48.4,32,48.7,32,49,31.7L49,31.7z"/>
			<path class="st1" d="M26.3,55.5H26C26,55.2,26,55.2,26.3,55.5C26.3,55.2,26.3,55.2,26.3,55.5C26.6,55.2,26.3,55.2,26.3,55.5z"/>
		</g>
	</g>
</g>
<g>
	<path class="st0" d="M486.2,50c-1.5-1.6-3.1-2.9-5.1-3.8c-2.7-1.1-5.5-0.9-8.2-2.1c-4.4-2.1-7.9-3.9-12.9-4.3
		c-1.2-0.1-2.3-0.2-3.5-0.2c-4.7-0.4-9.4-0.2-14.1,0.2c-2,0.2-3.1,1.6-3.3,3.2c-3.8,0.1-7.6,0.1-11.5,0.2c-4.5,0.1-4.5,7.1,0,7
		c13-0.3,26-0.5,39-0.5c0.6,0,1.1-0.1,1.6-0.4c2.4,1.2,4.3,2.3,7.2,2.7c4.4,0.7,10.2,5.3,9.6,10.4c-0.5,4.5,6.5,4.4,7,0
		C492.6,57.6,489.5,53.3,486.2,50z"/>
	<path class="st0" d="M416.1,38.3c-8.4-3.5-17.4-4.6-26.4-4.6c-8.3,0-17.3,0.4-25.2,3.1c-9.1,3.2-17.7,11.7-17.8,20.8
		c-3,4.4-5.2,9.4-6.1,14.9c-0.7,4.4,6,6.3,6.8,1.9c0.5-2.8,1.3-5.4,2.3-7.8c0.4,0.6,0.9,1.3,1.5,1.9c3,3.4,8-1.6,4.9-4.9
		c-1.1-1.2-1.8-2.6-2.1-4c4.8-6,11.4-10.5,18.6-13.9c3.3-1.6,6.6-3,10.4-3c3.9,0,7.8,1.1,11.7,1.7c6.9,1.1,13.7,1.3,20.7,0.6
		C419.3,44.8,419.8,39.8,416.1,38.3z"/>
	<path class="st0" d="M502.1,53.8c-0.8-0.4-1.7-0.9-2.5-1.3c-1.5-0.9-2.9-1.9-4.2-3.2c-1.1-1.1-2.5-1.3-3.7-1
		c-1.3-0.6-2.7-1.2-4.1-1.7c-2.8-1-6-1.2-9.2-1.1c-2.5-9.5-12.5-16.3-23.6-18.6c-7.1-1.5-14.5-1.3-21.7-0.5
		c-2.5,0.3-5.3,0.4-7.4,1.7c-0.9,0.5-1.9,2.2-2.8,3.4c-5.3-3.3-10.9-6.4-17.6-7.5c-7.4-1.3-15.5-0.6-22.8,0.7
		c-15.6,2.6-27.4,11.7-42.3,15.9c-12.8,3.6-26.8,4.9-38.4,11c-10.2,5.4-18.4,15.5-9.7,24.7c3.3,3.5,9.3-1.4,6-4.9
		c-6.6-7,8.2-14.3,14.4-16.6c7.6-2.8,15.8-4,23.8-5.9c8-1.9,15.3-4.4,22.5-7.8c8.1-3.8,15.7-7.7,24.9-9.4c9.8-1.8,19.9-2.1,28.8,2.4
		c5.2,2.6,10.9,8.6,16.1,2.7c1.4-1.5,1-2.3,3.6-3.1c2-0.6,4.9-0.5,7.1-0.7c5.1-0.2,10.3-0.1,15.2,1.2c4.6,1.2,8.7,3.3,11.6,6.2
		c-6.7-1.8-13.8-2.6-20.9-2.2c-5.6,0.4-24.6,2.1-21.1,10.1c1.7,3.8,8.2,4.3,12.3,4.7c6.5,0.7,13.1,0.5,19.7,0.3
		c6.9-0.2,13.9-0.5,20.8-0.7c4.5-0.1,7.2,0.1,11.2,2.1c2.4,1.2,4.8,2.4,7.2,3.7c0.8,0.5,1.7,0.9,2.6,1.4
		C502.6,62.1,506.7,56.2,502.1,53.8z M451.5,46.5c-3,0.1-6,0.1-9,0c-1,0-3.5,0-5.9-0.2c1.8-0.3,3.5-0.6,4.1-0.7
		c3.7-0.6,7.5-0.7,11.2-0.6c2.9,0.1,5.8,0.5,8.5,1.1C457.5,46.3,454.5,46.4,451.5,46.5z"/>
	<g>
		<g>
			<path class="st0" d="M323.6,87c5-0.6,9.8,0,14.8,1.1c10.7,2.2,21.1,1.1,30.9-2.2c2.2-0.8,3.5-0.6,5.4,0.3
				c14.8,7.2,33.4,7.2,48.3,0c1.9-0.8,3.5-0.8,5.4-0.6c6.3,1.1,12.6,1.1,18.9,0c2.2-0.3,3.8,0,5.7,0.6c13.9,5.3,28.1,5.3,41.6,0
				c13.6-5.3,19.2-13.3,16.4-22.9c-2.8-9.4-12.3-15.5-27.4-18c-2.5-0.6-3.5-1.1-4.1-2.5c-4.1-9.4-14.2-15.5-30.3-17.4
				c-8.8-1.1-17.7-0.3-25.9,2.5c-2.2,0.8-3.2,0.6-4.7-0.6c-18.3-12.4-48.9-10.5-63.1,3.9c-0.9,0.8-1.9,1.4-3.8,1.4
				c-10.1,0.3-18.3,2.8-25.2,7.2c-1.6,1.1-3.2,1.4-5.4,1.4c-19.9,0.6-35,9.7-36.3,21.8c-0.9,10.8,12.6,21,31.2,23.2
				C318.5,87,321.1,87,323.6,87z M471.8,37.5c-1.6,0-2.2-0.8-3.2-1.1c-11.4-5.5-23.7-6.9-37.2-3.6c-2.5,0.6-5,0-6.3-2.2
				c-0.9-1.7,1.6-1.7,2.8-2.2c12.3-3,24.3-2.5,35,2.2C466.8,32.5,470.6,34.7,471.8,37.5c0.3,0,0.3,0.3,0.6,0.6h-0.3
				C472.2,38.1,472.2,37.8,471.8,37.5z M419.2,31.7c-0.6-0.3-1.3-0.3-1.6-0.6c-10.1-5.3-21.8-6.6-34.4-4.4
				c-8.8,1.7-16.1,4.7-20.5,10c-1.3,1.4-2.5,2.5-5.4,2.5c-7.3,0.3-13.6,1.9-18.9,4.7c-3.5,1.7-6.9,2.8-11.4,3
				c-3.8,0-7.3,0.6-10.7,1.7c-15.1,4.7-23.7,10.8-23,21c0,1.7,0.9,3.3,1.3,5c-7.3-7.2-6.3-9.4-4.7-14.4c2.8-9.1,16.1-14.9,30.3-16.9
				c3.8-0.6,8.2,0.3,11.7-1.9c6-3.6,13.6-6.4,22.4-6.4c1.9,0,3.2-0.6,3.8-1.7c1.9-3.3,6.6-5.3,10.7-7.2c4.4-2.2,10.4-3,16.1-3.9
				c10.4-1.4,19.6,1.1,27.8,4.4C415.1,27.6,418.5,28.9,419.2,31.7c0.9,0,2.2,0,1.6,1.1C419.8,32.5,419.8,32,419.2,31.7z M352.6,64.6
				c-4.7-5.3-3.8-13.8,1.6-18.8c11.7-11.6,38.2-15.8,58-6.1c0.9,0.6,2.2,0.8,1.3,1.7c-0.6,0.6-1.9,0.3-2.8,0
				c-10.7-4.1-22.1-4.4-33.8-2.2c-10.1,1.9-17.3,6.1-21.8,11.6C351.7,55.2,351,59.9,352.6,64.6z M489.2,59.6
				c-3.8-6.1-10.7-10.2-19.9-12.7c-10.4-3-21.4-3.3-32.2-0.6c-1.3,0.3-2.8,0.6-4.1,0.3c-1.3-0.3-3.2-0.3-3.5-1.4s1.6-1.4,2.5-1.7
				c15.1-5,32.5-3.9,45.4,2.8c1.3,0.6,1.6,1.7,3.5,1.7c0.3-0.8-0.9-1.4,0-2.5c8.8,1.4,16.1,4.4,20.8,9.4c-5.7-2.5-11-4.7-18.6-5.8
				C485.7,53.3,489.2,56,489.2,59.6z M489.8,61.3C489.8,61,489.8,61,489.8,61.3C489.8,61,489.8,61,489.8,61.3
				C490.1,61,490.1,61,489.8,61.3C490.1,61.3,489.8,61.3,489.8,61.3z"/>
			<path class="st1" d="M419.2,31.4c-0.6-2.5-4.1-3.9-6.9-5.3c-8.2-3.3-17.3-5.8-27.8-4.4c-5.7,0.8-11.7,1.7-16.1,3.9
				c-4.1,1.9-8.5,4.1-10.7,7.2c-0.6,1.1-1.9,1.7-3.8,1.7c-9.1,0-16.4,2.8-22.4,6.4c-3.5,2.2-7.9,1.4-11.7,1.9
				c-14.2,1.9-27.4,8-30.3,16.9c-1.6,5-2.2,7.2,4.7,14.4c-0.3-1.7-1.3-3.3-1.3-5c-0.6-10.5,7.9-16.6,23-21c3.5-1.1,6.9-1.4,10.7-1.7
				c4.4,0,8.2-1.1,11.4-3c5.4-2.8,11.7-4.7,18.9-4.7c2.8,0,4.4-1.4,5.4-2.5c4.4-5,11.7-8.3,20.5-10c12.6-2.2,24.3-0.8,34.4,4.4
				C417.9,31.4,418.5,31.4,419.2,31.4L419.2,31.4z"/>
			<path class="st1" d="M352.6,64.6c-1.6-4.7-0.9-9.4,2.5-13.8c4.7-5.8,12-9.7,21.8-11.6c11.7-2.2,23-1.9,33.8,2.2
				c0.9,0.3,2.2,0.6,2.8,0c0.9-0.8-0.3-1.4-1.3-1.7c-19.9-9.4-46.4-5.5-58,6.1C348.8,50.8,347.9,59.6,352.6,64.6z"/>
			<path class="st1" d="M489.2,59.6c0-3.6-3.2-6.6-5.7-10c7.3,0.8,12.9,3.3,18.6,5.8c-4.7-5-11.7-8-20.8-9.4c-0.9,0.8,0.6,1.7,0,2.5
				c-1.9,0-2.5-1.1-3.5-1.7c-13.2-6.4-30.3-7.7-45.4-2.8c-1.3,0.3-3.2,0.6-2.5,1.7c0.3,0.8,2.2,1.1,3.5,1.4c1.3,0.3,2.8,0,4.1-0.3
				c10.7-3,21.8-2.8,32.2,0.6C478.5,49.7,485.4,53.8,489.2,59.6z"/>
			<path class="st1" d="M472.2,37.5c-1.6-3-5-5-8.8-6.6c-10.7-4.7-22.7-5.3-35-2.2c-1.3,0.3-3.8,0.6-2.8,2.2
				c1.3,1.9,3.8,2.8,6.3,2.2c13.6-3.3,25.9-2.2,37.2,3.6C469.6,37,470.6,37.5,472.2,37.5L472.2,37.5z"/>
			<path class="st1" d="M419.2,31.7c0.3,0.3,0.6,1.1,1.6,1.1C421.7,31.7,420.1,31.7,419.2,31.7C419.2,31.4,419.2,31.7,419.2,31.7z"
				/>
			<path class="st1" d="M471.8,37.5c0,0.3,0.3,0.3,0.3,0.6h0.3C472.5,37.8,472.2,37.8,471.8,37.5C472.2,37.5,471.8,37.5,471.8,37.5z
				"/>
			<path class="st1" d="M489.8,61.3C489.8,61.3,490.1,61.3,489.8,61.3C490.1,61,490.1,61,489.8,61.3C489.8,61,489.8,61,489.8,61.3
				C489.8,61,489.8,61,489.8,61.3z"/>
		</g>
	</g>
</g>
</svg>
