<?xml version="1.0" encoding="utf-8"?>
<!-- Generator: Adobe Illustrator 23.0.1, SVG Export Plug-In . SVG Version: 6.00 Build 0)  -->
<svg version="1.1" id="Layer_1" xmlns="http://www.w3.org/2000/svg" xmlns:xlink="http://www.w3.org/1999/xlink" x="0px" y="0px"
	 viewBox="0 0 531 531" style="enable-background:new 0 0 531 531;" xml:space="preserve">
<style type="text/css">
	.st0{fill:#212628;}
	.st1{opacity:0.68;}
	.st2{fill:#EFF7CF;}
	.st3{fill:#FFB896;}
	.st4{fill:#9AB285;}
</style>
<rect class="st0" width="531" height="531"/>
<g class="st1">
	<path class="st2" d="M447.9,425.5c-0.8-0.3-1.6-0.3-2.3-0.5c-0.6-0.2-1.3-0.4-2-0.5c-0.4-0.1-0.8-0.1-1.2,0
		c-2.4-0.5-4.9,0.5-6.2,2.9c-1.4,2.7-0.5,5.4,1.6,7.1c0.6,1.3,1.8,2.4,3.5,2.4c0.9,0.1,1.6-0.2,2.3-0.5c2.1,0.1,4.3-0.5,5.8-1.8
		C452.4,432.1,451.8,427,447.9,425.5z"/>
	<path class="st3" d="M434.6,412.8c-1.9-2.7-5.2-4.4-6.6-2.2c-0.1,0.2-0.2,0.4-0.4,0.6c-0.6,0.1-1.2,0.5-1.4,1.2
		c-0.7,1.7,0,4.4,1.5,6.1c0.1,0.1,0.1,0.1,0.2,0.2c0.1,0.1,0.2,0.2,0.2,0.3c0.3,0.4,0.6,0.9,0.9,1.3c0.9,1.2,1.8,2.2,2.8,2.7
		c2.2,1.3,4.9,1,5.2-2C437.5,418.5,436.2,415,434.6,412.8z"/>
	<path class="st3" d="M464.7,417.3c0.8-3.7-1.6-5.9-5.4-4.4c-1.4,0.6-2.6,1.9-3,3.3c-0.8,0.5-1.6,1.2-2.3,1.9
		c-1.7,1.6-2.7,3.8-2.6,5.6c0.1,2.3,2.4,3,4.7,2.1C459.6,424.4,463.8,420.9,464.7,417.3z"/>
	<path class="st3" d="M470.1,441.9c0.3-4.7-5.6-9.4-12.4-10.2c-3.1-0.4-4.2,1.5-3.6,3.2c-0.7,0.1-1.3,0.4-1.7,0.9
		c-1,1.1-0.2,3.2,1.8,4.2c0.2,0.1,0.3,0.2,0.6,0.3c0.1,0.1,0.2,0.3,0.3,0.4c1.6,2.2,4.6,3.5,7.8,4.3
		C467.1,446,469.9,444.8,470.1,441.9z"/>
	<path class="st3" d="M448.7,442.2c-0.2-0.5-0.4-0.9-0.8-1.2c-1.2-1.2-2.7-0.8-3.6,0.9c-1,1.7-1,4-0.7,6.2c0.4,3.6,1.5,7.3,3.8,8.3
		c2.2,0.9,4.7-1.3,4.8-5.3C452.4,447.4,450.7,443,448.7,442.2z"/>
	<path class="st3" d="M438,439.8c-0.2-1-0.9-1.4-1.8-1.3c-0.1-0.4-0.3-0.7-0.5-0.9c-1-0.7-2.8,0.2-4.1,1.9c-0.1,0.1-0.4,0.5-0.5,0.6
		s-0.5,0.6-0.5,0.6c-0.5,0.6-1.1,1.3-1.6,2c-1,1.5-1.8,3-2,4.4c-0.6,2.6,0.6,4.3,2.5,4.5c2.1,0.1,4.6-1.4,6.5-4.2
		C437.7,445,438.5,441.9,438,439.8z"/>
	<path class="st3" d="M417.1,430.7c1-3.2,7-5.1,12.8-4.2c2.7,0.4,3.1,1.9,2.1,2.9c0.5,0.2,1,0.6,1.2,1c0.5,1-0.6,2.2-2.6,2.5
		c-0.2,0-0.3,0.1-0.5,0.1c-0.1,0.1-0.2,0.2-0.3,0.2c-1.9,1.1-4.7,1.4-7.5,1.3C418.5,434.2,416.5,432.7,417.1,430.7z"/>
	<path class="st3" d="M445.7,420.4c-0.1,0.6-0.3,1-0.7,1.4c-1.1,1.4-2.6,1.1-3.7-0.8c-1.1-1.9-1.3-4.6-1.1-7.1
		c0.1-4.1,1-8.5,3.1-9.8c2.1-1.2,4.8,1.1,5.2,5.8C448.9,414.1,447.7,419.3,445.7,420.4z"/>
</g>
<g class="st1">
	<path class="st2" d="M382.7,6.4c-0.8-0.3-1.6-0.3-2.3-0.5c-0.6-0.2-1.3-0.4-2-0.5c-0.4-0.1-0.8-0.1-1.2,0c-2.4-0.5-4.9,0.5-6.2,2.9
		c-1.4,2.7-0.5,5.4,1.6,7.1c0.6,1.3,1.8,2.4,3.5,2.4c0.9,0.1,1.6-0.2,2.3-0.5c2.1,0.1,4.3-0.5,5.8-1.8
		C387.1,12.9,386.6,7.9,382.7,6.4z"/>
	<path class="st4" d="M369.3-6.4c-1.9-2.7-5.2-4.4-6.6-2.2c-0.1,0.2-0.2,0.4-0.4,0.6c-0.6,0.1-1.2,0.5-1.4,1.2
		c-0.7,1.7,0,4.4,1.5,6.1c0.1,0.1,0.1,0.1,0.2,0.2c0.1,0.1,0.2,0.2,0.2,0.3c0.3,0.4,0.6,0.9,0.9,1.3c0.9,1.2,1.8,2.2,2.8,2.7
		c2.2,1.3,4.9,1,5.2-2C372.3-0.6,370.9-4.1,369.3-6.4z"/>
	<path class="st4" d="M399.5-1.8c0.8-3.7-1.6-5.9-5.4-4.4c-1.4,0.6-2.6,1.9-3,3.3c-0.8,0.5-1.6,1.2-2.3,1.9
		c-1.7,1.6-2.7,3.8-2.6,5.6c0.1,2.3,2.4,3,4.7,2.1C394.3,5.2,398.6,1.8,399.5-1.8z"/>
	<path class="st4" d="M404.9,22.7c0.3-4.7-5.6-9.4-12.4-10.2c-3.1-0.4-4.2,1.5-3.6,3.2c-0.7,0.1-1.3,0.4-1.7,0.9
		c-1,1.1-0.2,3.2,1.8,4.2c0.2,0.1,0.3,0.2,0.6,0.3c0.1,0.1,0.2,0.3,0.3,0.4c1.6,2.2,4.6,3.5,7.8,4.3
		C401.9,26.9,404.6,25.6,404.9,22.7z"/>
	<path class="st4" d="M383.4,23.1c-0.2-0.5-0.4-0.9-0.8-1.2c-1.2-1.2-2.7-0.8-3.6,0.9c-1,1.7-1,4-0.7,6.2c0.4,3.6,1.5,7.3,3.8,8.3
		c2.2,0.9,4.7-1.3,4.8-5.3C387.1,28.3,385.5,23.8,383.4,23.1z"/>
	<path class="st4" d="M372.8,20.7c-0.2-1-0.9-1.4-1.8-1.3c-0.1-0.4-0.3-0.7-0.5-0.9c-1-0.7-2.8,0.2-4.1,1.9
		c-0.1,0.1-0.4,0.5-0.5,0.6s-0.5,0.6-0.5,0.6c-0.5,0.6-1.1,1.3-1.6,2c-1,1.5-1.8,3-2,4.4c-0.6,2.6,0.6,4.3,2.5,4.5
		c2.1,0.1,4.6-1.4,6.5-4.2C372.4,25.9,373.3,22.8,372.8,20.7z"/>
	<path class="st4" d="M351.9,11.6c1-3.2,7-5.1,12.8-4.2c2.7,0.4,3.1,1.9,2.1,2.9c0.5,0.2,1,0.6,1.2,1c0.5,1-0.6,2.2-2.6,2.5
		c-0.2,0-0.3,0.1-0.5,0.1c-0.1,0.1-0.2,0.2-0.3,0.2c-1.9,1.1-4.7,1.4-7.5,1.3C353.3,15,351.2,13.6,351.9,11.6z"/>
	<path class="st4" d="M380.4,1.3c-0.1,0.6-0.3,1-0.7,1.4c-1.1,1.4-2.6,1.1-3.7-0.8c-1.1-1.9-1.3-4.6-1.1-7.1c0.1-4.1,1-8.5,3.1-9.8
		c2.1-1.2,4.8,1.1,5.2,5.8C383.7-5,382.4,0.2,380.4,1.3z"/>
</g>
<g class="st1">
	<path class="st2" d="M387.1,253.9c-0.8-1.3-2-2.1-3.3-2.6c-1.9-1-4.3-1-6.4-0.3c-1.7,0.6-3.2,1.5-4.1,3.1c-1,1.9-1.1,4.2,0.1,6.1
		c1.3,1.9,3.4,2.8,5.6,2.5c1,0.4,2.1,0.6,3.1,0.2c0.2-0.1,0.5-0.2,0.7-0.3c0.7-0.1,1.4-0.3,2.1-0.7
		C387.5,260.4,388.9,256.6,387.1,253.9z"/>
	<path class="st4" d="M384.1,277.9c-0.2-1.1,0-1.4-0.3-4.2c0-0.6-0.7-3.4-0.8-4c-0.8-2.7-1.6-3.6-3.6-3.4c-2.1,0.1-3.7,2.4-3.9,5.4
		c-2.8,2.5-4.5,7.9-2.7,12.1c1.4,3.4,4.1,4.3,6.6,3.8c1.3-0.3,2.5-0.7,3.5-2.1c0.4-0.5,0.7-1.2,0.9-2
		C383.9,281.3,384.7,280.5,384.1,277.9z"/>
	<path class="st4" d="M397.5,264.5c-0.9-0.6-1.9-0.9-2.7-0.8c-0.8-0.5-1.7-0.9-2.5-1.3c-1.4-0.6-2.9-0.3-3.6,0.8
		c-0.5,0.1-0.9,0.4-1.2,0.8c-1.1,1.7-0.7,4.4,1.1,6.5c0.9,1.1,1.9,2.5,3,3.7c1.1,1.7,2.4,3.2,4,4.5c2.5,2,5.6,2.8,7.2,0.7
		C405.7,275.6,402,267.6,397.5,264.5z"/>
	<path class="st4" d="M410,246.3c0-1-3.1-0.5-4.1-1.1c-2.5-1.5-6.6-0.8-9.3,1.3c-2.2,1.7-3.8,3.5-5.3,5.5c-0.6,0.8-0.5,1.7,0.1,2.4
		c-0.1,0.7,0.3,1.4,1,1.9c1.4,0.8,3.6,0.8,5.5,0c2.2,0,4.3-0.1,6.6-0.9c2.4-0.8,4.6-2.3,5.4-4.1C410.7,249.5,412.3,246.6,410,246.3z
		"/>
	<path class="st4" d="M374.3,226.8c-3.3-1-6.6,2-8.4,4.4c-1.3,1.8-1.3,5.3,0.7,7c2.4,2,4.4,4.2,6.1,7c3.3,5.5,10.2,0.4,7-5.1
		c-0.1-0.1-0.1-0.2-0.2-0.3c0.1-0.5,0.2-1.1,0.1-1.7C378.9,234.1,378.4,228,374.3,226.8z"/>
	<path class="st4" d="M368.8,250.5c-1.5-3-4.7-5.2-8.5-6.6c-0.3-0.2-0.7-0.5-1-0.6c-2.9-1.3-6.5-1.4-8.5,0.5c0,0,0,0-0.1,0.1
		c-1.1,0.3-2,0.9-2.5,1.6c-1.8,2.6-0.2,4.9,2.7,6.7c1,1.2,2.7,2.2,4.5,2.2c0.1,0,0.1,0,0.2,0c2.8,1,5.8,1.7,8.1,2
		C368.8,258.3,372.8,253.2,368.8,250.5z"/>
	<path class="st4" d="M365.5,260.9l-0.1,0.1c-1.2,0-2.4,0.5-3.5,1.1c-2.5,0-5.2,1-7.5,2.4c-1.8,1-3.4,3-3,4.8
		c0.6,2.1,1.3,4.1,3.3,5.3c2.1,1.2,4.8,1.2,7.5,0.2c2.5-1,4.5-2.8,5.9-4.8c0.5-0.7,1.1-1.5,1.4-2.3
		C374.7,264.6,371.1,258.1,365.5,260.9z"/>
	<path class="st4" d="M385.7,241.3l0.1-0.1c0.1-0.9,0.6-1.8,1.3-2.6c0.2-1.9,1.4-3.9,2.7-5.6c1-1.3,2.8-2.5,4.2-2.1
		c1.6,0.5,3.2,1.1,4,2.7c0.8,1.6,0.5,3.7-0.6,5.7c-1.1,1.8-2.7,3.3-4.5,4.3c-0.6,0.3-1.3,0.7-2,1
		C387.8,248.4,382.8,245.4,385.7,241.3z"/>
</g>
<g class="st1">
	<path class="st2" d="M25.2,250.7c-0.8-1.3-2-2.1-3.3-2.6c-1.9-1-4.3-1-6.4-0.3c-1.7,0.6-3.2,1.5-4.1,3.1c-1,1.9-1.1,4.2,0.1,6.1
		c1.3,1.9,3.4,2.8,5.6,2.5c1,0.4,2.1,0.6,3.1,0.2c0.2-0.1,0.5-0.2,0.7-0.3c0.7-0.1,1.4-0.3,2.1-0.7
		C25.6,257.3,26.9,253.4,25.2,250.7z"/>
	<path class="st3" d="M22.1,274.7c-0.2-1.1,0-1.4-0.3-4.2c0-0.6-0.7-3.4-0.8-4c-0.8-2.7-1.6-3.6-3.6-3.4c-2.1,0.1-3.7,2.4-3.9,5.4
		c-2.8,2.5-4.5,7.9-2.7,12.1c1.4,3.4,4.1,4.3,6.6,3.8c1.3-0.3,2.5-0.7,3.5-2.1c0.4-0.5,0.7-1.2,0.9-2
		C22,278.1,22.7,277.4,22.1,274.7z"/>
	<path class="st3" d="M35.5,261.3c-0.9-0.6-1.9-0.9-2.7-0.8c-0.8-0.5-1.7-0.9-2.5-1.3c-1.4-0.6-2.9-0.3-3.6,0.8
		c-0.5,0.1-0.9,0.4-1.2,0.8c-1.1,1.7-0.7,4.4,1.1,6.5c0.9,1.1,1.9,2.5,3,3.7c1.1,1.7,2.4,3.2,4,4.5c2.5,2,5.6,2.8,7.2,0.7
		C43.7,272.4,40,264.4,35.5,261.3z"/>
	<path class="st3" d="M48,243.1c0-1-3.1-0.5-4.1-1.1c-2.5-1.5-6.6-0.8-9.3,1.3c-2.2,1.7-3.8,3.5-5.3,5.5c-0.6,0.8-0.5,1.7,0.1,2.4
		c-0.1,0.7,0.3,1.4,1,1.9c1.4,0.8,3.6,0.8,5.5,0c2.2,0,4.3-0.1,6.6-0.9c2.4-0.8,4.6-2.3,5.4-4.1C48.7,246.3,50.3,243.4,48,243.1z"/>
	<path class="st3" d="M12.3,223.6c-3.3-1-6.6,2-8.4,4.4c-1.3,1.8-1.3,5.4,0.7,7c2.4,2,4.4,4.2,6.1,7c3.3,5.5,10.2,0.4,7-5.1
		c-0.1-0.1-0.1-0.2-0.2-0.3c0.1-0.5,0.2-1.1,0.1-1.7C17,231,16.5,224.8,12.3,223.6z"/>
	<path class="st3" d="M6.8,247.3c-1.4-2.9-4.7-5.2-8.4-6.5c-0.3-0.2-0.7-0.5-1-0.6c-2.9-1.3-6.5-1.4-8.5,0.5c0,0,0,0-0.1,0.1
		c-1.1,0.3-2,0.9-2.5,1.6c-1.8,2.6-0.2,4.9,2.7,6.7c1,1.2,2.7,2.2,4.5,2.2c0.1,0,0.1,0,0.2,0c2.8,1,5.8,1.7,8.1,2
		C6.9,255.2,10.8,250.1,6.8,247.3z"/>
	<path class="st3" d="M3.5,257.8l-0.1,0.1c-1.2,0-2.4,0.5-3.5,1.1c-2.5,0-5.2,1-7.5,2.4c-1.8,1-3.4,3-3,4.8c0.6,2.1,1.3,4.1,3.3,5.3
		c2.1,1.2,4.8,1.2,7.5,0.2c2.5-1,4.5-2.8,5.9-4.8c0.5-0.7,1.1-1.5,1.4-2.3C12.7,261.5,9.2,255,3.5,257.8z"/>
	<path class="st3" d="M23.7,238.1l0.1-0.1c0.1-0.9,0.6-1.8,1.3-2.6c0.2-1.9,1.4-3.9,2.7-5.6c1-1.3,2.8-2.5,4.2-2.1
		c1.6,0.5,3.2,1.1,4,2.7c0.8,1.6,0.5,3.7-0.6,5.7c-1.1,1.8-2.7,3.3-4.5,4.3c-0.6,0.3-1.3,0.7-2,1C25.8,245.3,20.9,242.3,23.7,238.1z
		"/>
</g>
<g class="st1">
	<path class="st2" d="M382.9,536.3c-0.8-0.3-1.6-0.3-2.3-0.5c-0.6-0.2-1.3-0.4-2-0.5c-0.4-0.1-0.8-0.1-1.2,0
		c-2.4-0.5-4.9,0.5-6.2,2.9c-1.4,2.7-0.5,5.4,1.6,7.1c0.6,1.3,1.8,2.4,3.5,2.4c0.9,0.1,1.6-0.2,2.3-0.5c2.1,0.1,4.3-0.5,5.8-1.8
		C387.3,542.8,386.8,537.7,382.9,536.3z"/>
	<path class="st4" d="M369.5,523.5c-1.9-2.7-5.2-4.4-6.6-2.2c-0.1,0.2-0.2,0.4-0.4,0.6c-0.6,0.1-1.2,0.5-1.4,1.2
		c-0.7,1.7,0,4.4,1.5,6.1c0.1,0.1,0.1,0.1,0.2,0.2c0.1,0.1,0.2,0.2,0.2,0.3c0.3,0.4,0.6,0.9,0.9,1.3c0.9,1.2,1.8,2.2,2.8,2.7
		c2.2,1.3,4.9,1,5.2-2C372.5,529.2,371.1,525.7,369.5,523.5z"/>
	<path class="st4" d="M399.7,528c0.8-3.7-1.6-5.9-5.4-4.4c-1.4,0.6-2.6,1.9-3,3.3c-0.8,0.5-1.6,1.2-2.3,1.9
		c-1.7,1.6-2.7,3.8-2.6,5.6c0.1,2.3,2.4,3,4.7,2.1C394.5,535.1,398.8,531.6,399.7,528z"/>
	<path class="st4" d="M405.1,552.6c0.3-4.7-5.6-9.4-12.4-10.2c-3.1-0.4-4.2,1.5-3.6,3.2c-0.7,0.1-1.3,0.4-1.7,0.9
		c-1,1.1-0.2,3.2,1.8,4.2c0.2,0.1,0.3,0.2,0.6,0.3c0.1,0.1,0.2,0.3,0.3,0.4c1.6,2.2,4.6,3.5,7.8,4.3
		C402.1,556.7,404.8,555.5,405.1,552.6z"/>
	<path class="st4" d="M383.6,552.9c-0.2-0.5-0.4-0.9-0.8-1.2c-1.2-1.2-2.7-0.8-3.6,0.9c-1,1.7-1,4-0.7,6.2c0.4,3.6,1.5,7.3,3.8,8.3
		c2.2,0.9,4.7-1.3,4.8-5.3C387.3,558.1,385.7,553.7,383.6,552.9z"/>
	<path class="st4" d="M373,550.5c-0.2-1-0.9-1.4-1.8-1.3c-0.1-0.4-0.3-0.7-0.5-0.9c-1-0.7-2.8,0.2-4.1,1.9c-0.1,0.1-0.4,0.5-0.5,0.6
		c-0.1,0.1-0.5,0.6-0.5,0.6c-0.5,0.6-1.1,1.3-1.6,2c-1,1.5-1.8,3-2,4.4c-0.6,2.6,0.6,4.3,2.5,4.5c2.1,0.1,4.6-1.4,6.5-4.2
		C372.6,555.7,373.5,552.7,373,550.5z"/>
	<path class="st4" d="M352.1,541.4c1-3.2,7-5.1,12.8-4.2c2.7,0.4,3.1,1.9,2.1,2.9c0.5,0.2,1,0.6,1.2,1c0.5,1-0.6,2.2-2.6,2.5
		c-0.2,0-0.3,0.1-0.5,0.1c-0.1,0.1-0.2,0.2-0.3,0.2c-1.9,1.1-4.7,1.4-7.5,1.3C353.5,544.9,351.4,543.4,352.1,541.4z"/>
	<path class="st4" d="M380.6,531.1c-0.1,0.6-0.3,1-0.7,1.4c-1.1,1.4-2.6,1.1-3.7-0.8c-1.1-1.9-1.3-4.6-1.1-7.1
		c0.1-4.1,1-8.5,3.1-9.8c2.1-1.2,4.8,1.1,5.2,5.8C383.9,524.9,382.6,530.1,380.6,531.1z"/>
</g>
<g class="st1">
	<path class="st2" d="M554.8,250.7c-0.8-1.3-2-2.1-3.3-2.6c-1.9-1-4.3-1-6.4-0.3c-1.7,0.6-3.2,1.5-4.1,3.1c-1,1.9-1.1,4.2,0.1,6.1
		c1.3,1.9,3.4,2.8,5.6,2.5c1,0.4,2.1,0.6,3.1,0.2c0.2-0.1,0.5-0.2,0.7-0.3c0.7-0.1,1.4-0.3,2.1-0.7
		C555.2,257.3,556.5,253.4,554.8,250.7z"/>
	<path class="st3" d="M551.7,274.7c-0.2-1.1,0-1.4-0.3-4.2c0-0.6-0.7-3.4-0.8-4c-0.8-2.7-1.6-3.6-3.6-3.4c-2.1,0.1-3.7,2.4-3.9,5.4
		c-2.8,2.5-4.5,7.9-2.7,12.1c1.4,3.4,4.1,4.3,6.6,3.8c1.3-0.3,2.5-0.7,3.5-2.1c0.4-0.5,0.7-1.2,0.9-2
		C551.6,278.1,552.3,277.4,551.7,274.7z"/>
	<path class="st3" d="M565.2,261.3c-0.9-0.6-1.9-0.9-2.7-0.8c-0.8-0.5-1.7-0.9-2.5-1.3c-1.4-0.6-2.9-0.3-3.6,0.8
		c-0.5,0.1-0.9,0.4-1.2,0.8c-1.1,1.7-0.7,4.4,1.1,6.5c0.9,1.1,1.9,2.5,3,3.7c1.1,1.7,2.4,3.2,4,4.5c2.5,2,5.6,2.8,7.2,0.7
		C573.3,272.4,569.6,264.4,565.2,261.3z"/>
	<path class="st3" d="M577.6,243.1c0-1-3.1-0.5-4.1-1.1c-2.5-1.5-6.6-0.8-9.3,1.3c-2.2,1.7-3.8,3.5-5.3,5.5
		c-0.6,0.8-0.5,1.7,0.1,2.4c-0.1,0.7,0.3,1.4,1,1.9c1.4,0.8,3.6,0.8,5.5,0c2.2,0,4.3-0.1,6.6-0.9c2.4-0.8,4.6-2.3,5.4-4.1
		C578.3,246.3,579.9,243.4,577.6,243.1z"/>
	<path class="st3" d="M541.9,223.6c-3.3-1-6.6,2-8.4,4.4c-1.3,1.8-1.3,5.3,0.7,7c2.4,2,4.4,4.2,6.1,7c3.3,5.5,10.2,0.4,7-5.1
		c-0.1-0.1-0.1-0.2-0.2-0.3c0.1-0.5,0.2-1.1,0.1-1.7C546.6,231,546.1,224.8,541.9,223.6z"/>
	<path class="st3" d="M536.4,247.3c-1.5-3-4.7-5.2-8.5-6.6c-0.3-0.2-0.7-0.5-1-0.6c-2.9-1.3-6.5-1.4-8.5,0.5c0,0,0,0-0.1,0.1
		c-1.1,0.3-2,0.9-2.5,1.6c-1.8,2.6-0.2,4.9,2.7,6.7c1,1.2,2.7,2.2,4.5,2.2c0.1,0,0.1,0,0.2,0c2.8,1,5.8,1.7,8.1,2
		C536.5,255.2,540.4,250.1,536.4,247.3z"/>
	<path class="st3" d="M533.2,257.8l-0.1,0.1c-1.2,0-2.4,0.5-3.5,1.1c-2.5,0-5.2,1-7.5,2.4c-1.8,1-3.4,3-3,4.8
		c0.6,2.1,1.3,4.1,3.3,5.3c2.1,1.2,4.8,1.2,7.5,0.2c2.5-1,4.5-2.8,5.9-4.8c0.5-0.7,1.1-1.5,1.4-2.3
		C542.3,261.5,538.8,255,533.2,257.8z"/>
	<path class="st3" d="M553.4,238.1l0.1-0.1c0.1-0.9,0.6-1.8,1.3-2.6c0.2-1.9,1.4-3.9,2.7-5.6c1-1.3,2.8-2.5,4.2-2.1
		c1.6,0.5,3.2,1.1,4,2.7c0.8,1.6,0.5,3.7-0.6,5.7c-1.1,1.8-2.7,3.3-4.5,4.3c-0.6,0.3-1.3,0.7-2,1
		C555.4,245.3,550.5,242.3,553.4,238.1z"/>
</g>
<g class="st1">
	<path class="st2" d="M254.8,549c-0.8-1.3-2-2.1-3.3-2.6c-1.9-1-4.3-1-6.4-0.3c-1.7,0.6-3.2,1.5-4.1,3.1c-1,1.9-1.1,4.2,0.1,6.1
		c1.3,1.9,3.4,2.8,5.6,2.5c1,0.4,2.1,0.6,3.1,0.2c0.2-0.1,0.5-0.2,0.7-0.3c0.7-0.1,1.4-0.3,2.1-0.7
		C255.2,555.5,256.5,551.7,254.8,549z"/>
	<path class="st3" d="M251.7,573c-0.2-1.1,0-1.4-0.3-4.2c0-0.6-0.7-3.4-0.8-4c-0.8-2.7-1.6-3.6-3.6-3.4c-2.1,0.1-3.7,2.4-3.9,5.4
		c-2.8,2.5-4.5,7.9-2.7,12.1c1.4,3.4,4.1,4.3,6.6,3.8c1.3-0.3,2.5-0.7,3.5-2.1c0.4-0.5,0.7-1.2,0.9-2
		C251.6,576.4,252.3,575.6,251.7,573z"/>
	<path class="st3" d="M265.1,559.6c-0.9-0.6-1.9-0.9-2.7-0.8c-0.8-0.5-1.7-0.9-2.5-1.3c-1.4-0.6-2.9-0.3-3.6,0.8
		c-0.5,0.1-0.9,0.4-1.2,0.8c-1.1,1.7-0.7,4.4,1.1,6.5c0.9,1.1,1.9,2.5,3,3.7c1.1,1.7,2.4,3.2,4,4.5c2.5,2,5.6,2.8,7.2,0.7
		C273.3,570.7,269.6,562.7,265.1,559.6z"/>
	<path class="st3" d="M277.6,541.4c0-1-3.1-0.5-4.1-1.1c-2.5-1.5-6.6-0.8-9.3,1.3c-2.2,1.7-3.8,3.5-5.3,5.5
		c-0.6,0.8-0.5,1.7,0.1,2.4c-0.1,0.7,0.3,1.4,1,1.9c1.4,0.8,3.6,0.8,5.5,0c2.2,0,4.3-0.1,6.6-0.9c2.4-0.8,4.6-2.3,5.4-4.1
		S279.9,541.7,277.6,541.4z"/>
	<path class="st3" d="M241.9,521.9c-3.3-1-6.6,2-8.4,4.4c-1.3,1.8-1.3,5.3,0.7,7c2.4,2,4.4,4.2,6.1,7c3.3,5.5,10.2,0.4,7-5.1
		c-0.1-0.1-0.1-0.2-0.2-0.3c0.1-0.5,0.2-1.1,0.1-1.7C246.6,529.2,246.1,523.1,241.9,521.9z"/>
	<path class="st3" d="M236.4,545.6c-1.5-3-4.7-5.2-8.5-6.6c-0.3-0.2-0.7-0.5-1-0.6c-2.9-1.3-6.5-1.4-8.5,0.5c0,0,0,0-0.1,0.1
		c-1.1,0.3-2,0.9-2.5,1.6c-1.8,2.6-0.2,4.9,2.7,6.7c1,1.2,2.7,2.2,4.5,2.2c0.1,0,0.1,0,0.2,0c2.8,1,5.8,1.7,8.1,2
		C236.5,553.4,240.4,548.3,236.4,545.6z"/>
	<path class="st3" d="M233.1,556l-0.1,0.1c-1.2,0-2.4,0.5-3.5,1.1c-2.5,0-5.2,1-7.5,2.4c-1.8,1-3.4,3-3,4.8c0.6,2.1,1.3,4.1,3.3,5.3
		c2.1,1.2,4.8,1.2,7.5,0.2c2.5-1,4.5-2.8,5.9-4.8c0.5-0.7,1.1-1.5,1.4-2.3C242.3,559.7,238.8,553.2,233.1,556z"/>
	<path class="st3" d="M253.3,536.4l0.1-0.1c0.1-0.9,0.6-1.8,1.3-2.6c0.2-1.9,1.4-3.9,2.7-5.6c1-1.3,2.8-2.5,4.2-2.1
		c1.6,0.5,3.2,1.1,4,2.7c0.8,1.6,0.5,3.7-0.6,5.7c-1.1,1.8-2.7,3.3-4.5,4.3c-0.6,0.3-1.3,0.7-2,1
		C255.4,543.5,250.5,540.5,253.3,536.4z"/>
</g>
<g class="st1">
	<path class="st2" d="M258.9,172.8c-0.8-0.3-1.6-0.3-2.3-0.5c-0.6-0.2-1.3-0.4-2-0.5c-0.4-0.1-0.8-0.1-1.2,0
		c-2.4-0.5-4.9,0.5-6.2,2.9c-1.4,2.7-0.5,5.4,1.6,7.1c0.6,1.3,1.8,2.4,3.5,2.4c0.9,0.1,1.6-0.2,2.3-0.5c2.1,0.1,4.3-0.5,5.8-1.8
		C263.3,179.3,262.8,174.3,258.9,172.8z"/>
	<path class="st4" d="M245.5,160c-1.9-2.7-5.2-4.4-6.6-2.2c-0.1,0.2-0.2,0.4-0.4,0.6c-0.6,0.1-1.2,0.5-1.4,1.2
		c-0.7,1.7,0,4.4,1.5,6.1c0.1,0.1,0.1,0.1,0.2,0.2c0.1,0.1,0.2,0.2,0.2,0.3c0.3,0.4,0.6,0.9,0.9,1.3c0.9,1.2,1.8,2.2,2.8,2.7
		c2.2,1.3,4.9,1,5.2-2C248.5,165.8,247.1,162.3,245.5,160z"/>
	<path class="st4" d="M275.7,164.6c0.8-3.7-1.6-5.9-5.4-4.4c-1.4,0.6-2.6,1.9-3,3.3c-0.8,0.5-1.6,1.2-2.3,1.9
		c-1.7,1.6-2.7,3.8-2.6,5.6c0.1,2.3,2.4,3,4.7,2.1C270.5,171.6,274.8,168.2,275.7,164.6z"/>
	<path class="st4" d="M281.1,189.1c0.3-4.7-5.6-9.4-12.4-10.2c-3.1-0.4-4.2,1.5-3.6,3.2c-0.7,0.1-1.3,0.4-1.7,0.9
		c-1,1.1-0.2,3.2,1.8,4.2c0.2,0.1,0.3,0.2,0.6,0.3c0.1,0.1,0.2,0.3,0.3,0.4c1.6,2.2,4.6,3.5,7.8,4.3
		C278.1,193.3,280.8,192,281.1,189.1z"/>
	<path class="st4" d="M259.6,189.5c-0.2-0.5-0.4-0.9-0.8-1.2c-1.2-1.2-2.7-0.8-3.6,0.9c-1,1.7-1,4-0.7,6.2c0.4,3.6,1.5,7.3,3.8,8.3
		c2.2,0.9,4.7-1.3,4.8-5.3C263.3,194.7,261.7,190.2,259.6,189.5z"/>
	<path class="st4" d="M249,187.1c-0.2-1-0.9-1.4-1.8-1.3c-0.1-0.4-0.3-0.7-0.5-0.9c-1-0.7-2.8,0.2-4.1,1.9c-0.1,0.1-0.4,0.5-0.5,0.6
		c-0.1,0.1-0.5,0.6-0.5,0.6c-0.5,0.6-1.1,1.3-1.6,2c-1,1.5-1.8,3-2,4.4c-0.6,2.6,0.6,4.3,2.5,4.5c2.1,0.1,4.6-1.4,6.5-4.2
		C248.6,192.3,249.5,189.2,249,187.1z"/>
	<path class="st4" d="M228.1,178c1-3.2,7-5.1,12.8-4.2c2.7,0.4,3.1,1.9,2.1,2.9c0.5,0.2,1,0.6,1.2,1c0.5,1-0.6,2.2-2.6,2.5
		c-0.2,0-0.3,0.1-0.5,0.1c-0.1,0.1-0.2,0.2-0.3,0.2c-1.9,1.1-4.7,1.4-7.5,1.3C229.5,181.4,227.4,180,228.1,178z"/>
	<path class="st4" d="M256.6,167.7c-0.1,0.6-0.3,1-0.7,1.4c-1.1,1.4-2.6,1.1-3.7-0.8c-1.1-1.9-1.3-4.6-1.1-7.1
		c0.1-4.1,1-8.5,3.1-9.8c2.1-1.2,4.8,1.1,5.2,5.8C259.9,161.4,258.6,166.6,256.6,167.7z"/>
</g>
<g class="st1">
	<path class="st2" d="M141.4,169.3c-0.8-1.3-2-2.1-3.3-2.6c-1.9-1-4.3-1-6.4-0.3c-1.7,0.6-3.2,1.5-4.1,3.1c-1,1.9-1.1,4.2,0.1,6.1
		c1.3,1.9,3.4,2.8,5.6,2.5c1,0.4,2.1,0.6,3.1,0.2c0.2-0.1,0.5-0.2,0.7-0.3c0.7-0.1,1.4-0.3,2.1-0.7
		C141.8,175.8,143.2,172,141.4,169.3z"/>
	<path class="st4" d="M138.4,193.3c-0.2-1.1,0-1.4-0.3-4.2c0-0.6-0.7-3.4-0.8-4c-0.8-2.7-1.6-3.6-3.6-3.4c-2.1,0.1-3.7,2.4-3.9,5.4
		c-2.8,2.5-4.5,7.9-2.7,12.1c1.4,3.4,4.1,4.3,6.6,3.8c1.3-0.3,2.5-0.7,3.5-2.1c0.4-0.5,0.7-1.2,0.9-2
		C138.2,196.7,139,195.9,138.4,193.3z"/>
	<path class="st4" d="M151.8,179.9c-0.9-0.6-1.9-0.9-2.7-0.8c-0.8-0.5-1.7-0.9-2.5-1.3c-1.4-0.6-2.9-0.3-3.6,0.8
		c-0.5,0.1-0.9,0.4-1.2,0.8c-1.1,1.7-0.7,4.4,1.1,6.5c0.9,1.1,1.9,2.5,3,3.7c1.1,1.7,2.4,3.2,4,4.5c2.5,2,5.6,2.8,7.2,0.7
		C160,191,156.3,183,151.8,179.9z"/>
	<path class="st4" d="M164.3,161.7c0-1-3.1-0.5-4.1-1.1c-2.5-1.5-6.6-0.8-9.3,1.3c-2.2,1.7-3.8,3.5-5.3,5.5
		c-0.6,0.8-0.5,1.7,0.1,2.4c-0.1,0.7,0.3,1.4,1,1.9c1.4,0.8,3.6,0.8,5.5,0c2.2,0,4.3-0.1,6.6-0.9c2.4-0.8,4.6-2.3,5.4-4.1
		C165,164.9,166.6,162,164.3,161.7z"/>
	<path class="st4" d="M128.6,142.2c-3.3-1-6.6,2-8.4,4.4c-1.3,1.8-1.3,5.3,0.7,7c2.4,2,4.4,4.2,6.1,7c3.3,5.5,10.2,0.4,7-5.1
		c-0.1-0.1-0.1-0.2-0.2-0.3c0.1-0.5,0.2-1.1,0.1-1.7C133.2,149.5,132.7,143.4,128.6,142.2z"/>
	<path class="st4" d="M123.1,165.9c-1.5-3-4.7-5.2-8.5-6.6c-0.3-0.2-0.7-0.5-1-0.6c-2.9-1.3-6.5-1.4-8.5,0.5c0,0,0,0-0.1,0.1
		c-1.1,0.3-2,0.9-2.5,1.6c-1.8,2.6-0.2,4.9,2.7,6.7c1,1.2,2.7,2.2,4.5,2.2c0.1,0,0.1,0,0.2,0c2.8,1,5.8,1.7,8.1,2
		C123.1,173.7,127.1,168.6,123.1,165.9z"/>
	<path class="st4" d="M119.8,176.3l-0.1,0.1c-1.2,0-2.4,0.5-3.5,1.1c-2.5,0-5.2,1-7.5,2.4c-1.8,1-3.4,3-3,4.8
		c0.6,2.1,1.3,4.1,3.3,5.3c2.1,1.2,4.8,1.2,7.5,0.2c2.5-1,4.5-2.8,5.9-4.8c0.5-0.7,1.1-1.5,1.4-2.3C129,180,125.4,173.5,119.8,176.3
		z"/>
	<path class="st4" d="M140,156.7l0.1-0.1c0.1-0.9,0.6-1.8,1.3-2.6c0.2-1.9,1.4-3.9,2.7-5.6c1-1.3,2.8-2.5,4.2-2.1
		c1.6,0.5,3.2,1.1,4,2.7c0.8,1.6,0.5,3.7-0.6,5.7c-1.1,1.8-2.7,3.3-4.5,4.3c-0.6,0.3-1.3,0.7-2,1C142.1,163.8,137.1,160.8,140,156.7
		z"/>
</g>
<g class="st1">
	<path class="st2" d="M64.6,75c-0.8-1.3-2-2.1-3.3-2.6c-1.9-1-4.3-1-6.4-0.3c-1.7,0.6-3.2,1.5-4.1,3.1c-1,1.9-1.1,4.2,0.1,6.1
		c1.3,1.9,3.4,2.8,5.6,2.5c1,0.4,2.1,0.6,3.1,0.2c0.2-0.1,0.5-0.2,0.7-0.3c0.7-0.1,1.4-0.3,2.1-0.7C65,81.6,66.3,77.7,64.6,75z"/>
	<path class="st3" d="M61.5,99c-0.2-1.1,0-1.4-0.3-4.2c0-0.6-0.7-3.4-0.8-4c-0.8-2.7-1.6-3.6-3.6-3.4c-2.1,0.1-3.7,2.4-3.9,5.4
		c-2.8,2.5-4.5,7.9-2.7,12.1c1.4,3.4,4.1,4.3,6.6,3.8c1.3-0.3,2.5-0.7,3.5-2.1c0.4-0.5,0.7-1.2,0.9-2C61.4,102.4,62.1,101.7,61.5,99
		z"/>
	<path class="st3" d="M74.9,85.6C74,85,73,84.7,72.2,84.8c-0.8-0.5-1.7-0.9-2.5-1.3c-1.4-0.6-2.9-0.3-3.6,0.8
		c-0.5,0.1-0.9,0.4-1.2,0.8c-1.1,1.7-0.7,4.4,1.1,6.5c0.9,1.1,1.9,2.5,3,3.7c1.1,1.7,2.4,3.2,4,4.5c2.5,2,5.6,2.8,7.2,0.7
		C83.1,96.7,79.4,88.7,74.9,85.6z"/>
	<path class="st3" d="M87.4,67.4c0-1-3.1-0.5-4.1-1.1c-2.5-1.5-6.6-0.8-9.3,1.3c-2.2,1.7-3.8,3.5-5.3,5.5c-0.6,0.8-0.5,1.7,0.1,2.4
		c-0.1,0.7,0.3,1.4,1,1.9c1.4,0.8,3.6,0.8,5.5,0c2.2,0,4.3-0.1,6.6-0.9c2.4-0.8,4.6-2.3,5.4-4.1C88.1,70.6,89.7,67.7,87.4,67.4z"/>
	<path class="st3" d="M51.7,47.9c-3.3-1-6.6,2-8.4,4.4c-1.3,1.8-1.3,5.4,0.7,7c2.4,2,4.4,4.2,6.1,7c3.3,5.5,10.2,0.4,7-5.1
		C57,61.1,57,61,56.9,60.9c0.1-0.5,0.2-1.1,0.1-1.7C56.4,55.3,55.9,49.1,51.7,47.9z"/>
	<path class="st3" d="M46.2,71.6c-1.4-2.9-4.7-5.2-8.4-6.5c-0.3-0.2-0.7-0.5-1-0.6c-2.9-1.3-6.5-1.4-8.5,0.5c0,0,0,0-0.1,0.1
		c-1.1,0.3-2,0.9-2.5,1.6c-1.8,2.6-0.2,4.9,2.7,6.7c1,1.2,2.7,2.2,4.5,2.2c0.1,0,0.1,0,0.2,0c2.8,1,5.8,1.7,8.1,2
		C46.3,79.5,50.2,74.4,46.2,71.6z"/>
	<path class="st3" d="M42.9,82.1l-0.1,0.1c-1.2,0-2.4,0.5-3.5,1.1c-2.5,0-5.2,1-7.5,2.4c-1.8,1-3.4,3-3,4.8c0.6,2.1,1.3,4.1,3.3,5.3
		c2.1,1.2,4.8,1.2,7.5,0.2c2.5-1,4.5-2.8,5.9-4.8c0.5-0.7,1.1-1.5,1.4-2.3C52.1,85.8,48.6,79.3,42.9,82.1z"/>
	<path class="st3" d="M63.1,62.4l0.1-0.1c0.1-0.9,0.6-1.8,1.3-2.6c0.2-1.9,1.4-3.9,2.7-5.6c1-1.3,2.8-2.5,4.2-2.1
		c1.6,0.5,3.2,1.1,4,2.7c0.8,1.6,0.5,3.7-0.6,5.7c-1.1,1.8-2.7,3.3-4.5,4.3c-0.6,0.3-1.3,0.7-2,1C65.2,69.6,60.3,66.6,63.1,62.4z"/>
</g>
<g class="st1">
	<path class="st2" d="M288.5,361c-0.8-0.3-1.6-0.3-2.3-0.5c-0.6-0.2-1.3-0.4-2-0.5c-0.4-0.1-0.8-0.1-1.2,0c-2.4-0.5-4.9,0.5-6.2,2.9
		c-1.4,2.7-0.5,5.4,1.6,7.1c0.6,1.3,1.8,2.4,3.5,2.4c0.9,0.1,1.6-0.2,2.3-0.5c2.1,0.1,4.3-0.5,5.8-1.8
		C293,367.5,292.5,362.5,288.5,361z"/>
	<path class="st3" d="M275.2,348.2c-1.9-2.7-5.2-4.4-6.6-2.2c-0.1,0.2-0.2,0.4-0.4,0.6c-0.6,0.1-1.2,0.5-1.4,1.2
		c-0.7,1.7,0,4.4,1.5,6.1c0.1,0.1,0.1,0.1,0.2,0.2c0.1,0.1,0.2,0.2,0.2,0.3c0.3,0.4,0.6,0.9,0.9,1.3c0.9,1.2,1.8,2.2,2.8,2.7
		c2.2,1.3,4.9,1,5.2-2C278.1,353.9,276.8,350.4,275.2,348.2z"/>
	<path class="st3" d="M305.3,352.7c0.8-3.7-1.6-5.9-5.4-4.4c-1.4,0.6-2.6,1.9-3,3.3c-0.8,0.5-1.6,1.2-2.3,1.9
		c-1.7,1.6-2.7,3.8-2.6,5.6c0.1,2.3,2.4,3,4.7,2.1C300.2,359.8,304.4,356.3,305.3,352.7z"/>
	<path class="st3" d="M310.7,377.3c0.3-4.7-5.6-9.4-12.4-10.2c-3.1-0.4-4.2,1.5-3.6,3.2c-0.7,0.1-1.3,0.4-1.7,0.9
		c-1,1.1-0.2,3.2,1.8,4.2c0.2,0.1,0.3,0.2,0.6,0.3c0.1,0.1,0.2,0.3,0.3,0.4c1.6,2.2,4.6,3.5,7.8,4.3
		C307.7,381.4,310.5,380.2,310.7,377.3z"/>
	<path class="st3" d="M289.3,377.6c-0.2-0.5-0.4-0.9-0.8-1.2c-1.2-1.2-2.7-0.8-3.6,0.9c-1,1.7-1,4-0.7,6.2c0.4,3.6,1.5,7.3,3.8,8.3
		c2.2,0.9,4.7-1.3,4.8-5.3C293,382.8,291.4,378.4,289.3,377.6z"/>
	<path class="st3" d="M278.6,375.3c-0.2-1-0.9-1.4-1.8-1.3c-0.1-0.4-0.3-0.7-0.5-0.9c-1-0.7-2.8,0.2-4.1,1.9
		c-0.1,0.1-0.4,0.5-0.5,0.6c-0.1,0.1-0.5,0.6-0.5,0.6c-0.5,0.6-1.1,1.3-1.6,2c-1,1.5-1.8,3-2,4.4c-0.6,2.6,0.6,4.3,2.5,4.5
		c2.1,0.1,4.6-1.4,6.5-4.2C278.3,380.4,279.1,377.4,278.6,375.3z"/>
	<path class="st3" d="M257.7,366.1c1-3.2,7-5.1,12.8-4.2c2.7,0.4,3.1,1.9,2.1,2.9c0.5,0.2,1,0.6,1.2,1c0.5,1-0.6,2.2-2.6,2.5
		c-0.2,0-0.3,0.1-0.5,0.1c-0.1,0.1-0.2,0.2-0.3,0.2c-1.9,1.1-4.7,1.4-7.5,1.3C259.1,369.6,257.1,368.1,257.7,366.1z"/>
	<path class="st3" d="M286.3,355.8c-0.1,0.6-0.3,1-0.7,1.4c-1.1,1.4-2.6,1.1-3.7-0.8c-1.1-1.9-1.3-4.6-1.1-7.1
		c0.1-4.1,1-8.5,3.1-9.8c2.1-1.2,4.8,1.1,5.2,5.8C289.5,349.6,288.3,354.8,286.3,355.8z"/>
</g>
<g class="st1">
	<path class="st2" d="M111.4,418.4c-0.8-0.3-1.6-0.3-2.3-0.5c-0.6-0.2-1.3-0.4-2-0.5c-0.4-0.1-0.8-0.1-1.2,0
		c-2.4-0.5-4.9,0.5-6.2,2.9c-1.4,2.7-0.5,5.4,1.6,7.1c0.6,1.3,1.8,2.4,3.5,2.4c0.9,0.1,1.6-0.2,2.3-0.5c2.1,0.1,4.3-0.5,5.8-1.8
		C115.8,424.9,115.3,419.8,111.4,418.4z"/>
	<path class="st4" d="M98,405.6c-1.9-2.7-5.2-4.4-6.6-2.2c-0.1,0.2-0.2,0.4-0.4,0.6c-0.6,0.1-1.2,0.5-1.4,1.2
		c-0.7,1.7,0,4.4,1.5,6.1c0.1,0.1,0.1,0.1,0.2,0.2c0.1,0.1,0.2,0.2,0.2,0.3c0.3,0.4,0.6,0.9,0.9,1.3c0.9,1.2,1.8,2.2,2.8,2.7
		c2.2,1.3,4.9,1,5.2-2C101,411.3,99.6,407.8,98,405.6z"/>
	<path class="st4" d="M128.2,410.1c0.8-3.7-1.6-5.9-5.4-4.4c-1.4,0.6-2.6,1.9-3,3.3c-0.8,0.5-1.6,1.2-2.3,1.9
		c-1.7,1.6-2.7,3.8-2.6,5.6c0.1,2.3,2.4,3,4.7,2.1C123,417.2,127.3,413.7,128.2,410.1z"/>
	<path class="st4" d="M133.6,434.7c0.3-4.7-5.6-9.4-12.4-10.2c-3.1-0.4-4.2,1.5-3.6,3.2c-0.7,0.1-1.3,0.4-1.7,0.9
		c-1,1.1-0.2,3.2,1.8,4.2c0.2,0.1,0.3,0.2,0.6,0.3c0.1,0.1,0.2,0.3,0.3,0.4c1.6,2.2,4.6,3.5,7.8,4.3
		C130.6,438.8,133.3,437.6,133.6,434.7z"/>
	<path class="st4" d="M112.1,435c-0.2-0.5-0.4-0.9-0.8-1.2c-1.2-1.2-2.7-0.8-3.6,0.9c-1,1.7-1,4-0.7,6.2c0.4,3.6,1.5,7.3,3.8,8.3
		c2.2,0.9,4.7-1.3,4.8-5.3C115.8,440.2,114.2,435.8,112.1,435z"/>
	<path class="st4" d="M101.5,432.6c-0.2-1-0.9-1.4-1.8-1.3c-0.1-0.4-0.3-0.7-0.5-0.9c-1-0.7-2.8,0.2-4.1,1.9
		c-0.1,0.1-0.4,0.5-0.5,0.6s-0.5,0.6-0.5,0.6c-0.5,0.6-1.1,1.3-1.6,2c-1,1.5-1.8,3-2,4.4c-0.6,2.6,0.6,4.3,2.5,4.5
		c2.1,0.1,4.6-1.4,6.5-4.2C101.1,437.8,102,434.8,101.5,432.6z"/>
	<path class="st4" d="M80.6,423.5c1-3.2,7-5.1,12.8-4.2c2.7,0.4,3.1,1.9,2.1,2.9c0.5,0.2,1,0.6,1.2,1c0.5,1-0.6,2.2-2.6,2.5
		c-0.2,0-0.3,0.1-0.5,0.1c-0.1,0.1-0.2,0.2-0.3,0.2c-1.9,1.1-4.7,1.4-7.5,1.3C82,427,79.9,425.5,80.6,423.5z"/>
	<path class="st4" d="M109.1,413.2c-0.1,0.6-0.3,1-0.7,1.4c-1.1,1.4-2.6,1.1-3.7-0.8c-1.1-1.9-1.3-4.6-1.1-7.1
		c0.1-4.1,1-8.5,3.1-9.8c2.1-1.2,4.8,1.1,5.2,5.8C112.4,407,111.1,412.2,109.1,413.2z"/>
</g>
<g class="st1">
	<path class="st2" d="M465.8,119.8c-0.8-1.3-2-2.1-3.3-2.6c-1.9-1-4.3-1-6.4-0.3c-1.7,0.6-3.2,1.5-4.1,3.1c-1,1.9-1.1,4.2,0.1,6.1
		c1.3,1.9,3.4,2.8,5.6,2.5c1,0.4,2.1,0.6,3.1,0.2c0.2-0.1,0.5-0.2,0.7-0.3c0.7-0.1,1.4-0.3,2.1-0.7
		C466.2,126.4,467.5,122.5,465.8,119.8z"/>
	<path class="st3" d="M462.7,143.8c-0.2-1.1,0-1.4-0.3-4.2c0-0.6-0.7-3.4-0.8-4c-0.8-2.7-1.6-3.6-3.6-3.4c-2.1,0.1-3.7,2.4-3.9,5.4
		c-2.8,2.5-4.5,7.9-2.7,12.1c1.4,3.4,4.1,4.3,6.6,3.8c1.3-0.3,2.5-0.7,3.5-2.1c0.4-0.5,0.7-1.2,0.9-2
		C462.6,147.2,463.3,146.5,462.7,143.8z"/>
	<path class="st3" d="M476.2,130.4c-0.9-0.6-1.9-0.9-2.7-0.8c-0.8-0.5-1.7-0.9-2.5-1.3c-1.4-0.6-2.9-0.3-3.6,0.8
		c-0.5,0.1-0.9,0.4-1.2,0.8c-1.1,1.7-0.7,4.4,1.1,6.5c0.9,1.1,1.9,2.5,3,3.7c1.1,1.7,2.4,3.2,4,4.5c2.5,2,5.6,2.8,7.2,0.7
		C484.3,141.5,480.6,133.5,476.2,130.4z"/>
	<path class="st3" d="M488.6,112.2c0-1-3.1-0.5-4.1-1.1c-2.5-1.5-6.6-0.8-9.3,1.3c-2.2,1.7-3.8,3.5-5.3,5.5
		c-0.6,0.8-0.5,1.7,0.1,2.4c-0.1,0.7,0.3,1.4,1,1.9c1.4,0.8,3.6,0.8,5.5,0c2.2,0,4.3-0.1,6.6-0.9c2.4-0.8,4.6-2.3,5.4-4.1
		C489.3,115.4,490.9,112.5,488.6,112.2z"/>
	<path class="st3" d="M452.9,92.7c-3.3-1-6.6,2-8.4,4.4c-1.3,1.8-1.3,5.3,0.7,7c2.4,2,4.4,4.2,6.1,7c3.3,5.5,10.2,0.4,7-5.1
		c-0.1-0.1-0.1-0.2-0.2-0.3c0.1-0.5,0.2-1.1,0.1-1.7C457.6,100.1,457.1,93.9,452.9,92.7z"/>
	<path class="st3" d="M447.4,116.4c-1.5-3-4.7-5.2-8.5-6.6c-0.3-0.2-0.7-0.5-1-0.6c-2.9-1.3-6.5-1.4-8.5,0.5c0,0,0,0-0.1,0.1
		c-1.1,0.3-2,0.9-2.5,1.6c-1.8,2.6-0.2,4.9,2.7,6.7c1,1.2,2.7,2.2,4.5,2.2c0.1,0,0.1,0,0.2,0c2.8,1,5.8,1.7,8.1,2
		C447.5,124.3,451.4,119.2,447.4,116.4z"/>
	<path class="st3" d="M444.2,126.9l-0.1,0.1c-1.2,0-2.4,0.5-3.5,1.1c-2.5,0-5.2,1-7.5,2.4c-1.8,1-3.4,3-3,4.8
		c0.6,2.1,1.3,4.1,3.3,5.3c2.1,1.2,4.8,1.2,7.5,0.2c2.5-1,4.5-2.8,5.9-4.8c0.5-0.7,1.1-1.5,1.4-2.3
		C453.3,130.6,449.8,124.1,444.2,126.9z"/>
	<path class="st3" d="M464.4,107.2l0.1-0.1c0.1-0.9,0.6-1.8,1.3-2.6c0.2-1.9,1.4-3.9,2.7-5.6c1-1.3,2.8-2.5,4.2-2.1
		c1.6,0.5,3.2,1.1,4,2.7s0.5,3.7-0.6,5.7c-1.1,1.8-2.7,3.3-4.5,4.3c-0.6,0.3-1.3,0.7-2,1C466.4,114.4,461.5,111.4,464.4,107.2z"/>
</g>
<g class="st1">
	<path class="st2" d="M254.8,15c-0.8-1.3-2-2.1-3.3-2.6c-1.9-1-4.3-1-6.4-0.3c-1.7,0.6-3.2,1.5-4.1,3.1c-1,1.9-1.1,4.2,0.1,6.1
		c1.3,1.9,3.4,2.8,5.6,2.5c1,0.4,2.1,0.6,3.1,0.2c0.2-0.1,0.5-0.2,0.7-0.3c0.7-0.1,1.4-0.3,2.1-0.7C255.2,21.5,256.5,17.7,254.8,15z
		"/>
	<path class="st3" d="M251.7,39c-0.2-1.1,0-1.4-0.3-4.2c0-0.6-0.7-3.4-0.8-4c-0.8-2.7-1.6-3.6-3.6-3.4c-2.1,0.1-3.7,2.4-3.9,5.4
		c-2.8,2.5-4.5,7.9-2.7,12.1c1.4,3.4,4.1,4.3,6.6,3.8c1.3-0.3,2.5-0.7,3.5-2.1c0.4-0.5,0.7-1.2,0.9-2
		C251.6,42.4,252.3,41.6,251.7,39z"/>
	<path class="st3" d="M265.1,25.6c-0.9-0.6-1.9-0.9-2.7-0.8c-0.8-0.5-1.7-0.9-2.5-1.3c-1.4-0.6-2.9-0.3-3.6,0.8
		c-0.5,0.1-0.9,0.4-1.2,0.8c-1.1,1.7-0.7,4.4,1.1,6.5c0.9,1.1,1.9,2.5,3,3.7c1.1,1.7,2.4,3.2,4,4.5c2.5,2,5.6,2.8,7.2,0.7
		C273.3,36.7,269.6,28.7,265.1,25.6z"/>
	<path class="st3" d="M277.6,7.4c0-1-3.1-0.5-4.1-1.1c-2.5-1.5-6.6-0.8-9.3,1.3c-2.2,1.7-3.8,3.5-5.3,5.5c-0.6,0.8-0.5,1.7,0.1,2.4
		c-0.1,0.7,0.3,1.4,1,1.9c1.4,0.8,3.6,0.8,5.5,0c2.2,0,4.3-0.1,6.6-0.9c2.4-0.8,4.6-2.3,5.4-4.1C278.3,10.6,279.9,7.7,277.6,7.4z"/>
	<path class="st3" d="M241.9-12.1c-3.3-1-6.6,2-8.4,4.4c-1.3,1.8-1.3,5.3,0.7,7c2.4,2,4.4,4.2,6.1,7c3.3,5.5,10.2,0.4,7-5.1
		c-0.1-0.1-0.1-0.2-0.2-0.3c0.1-0.5,0.2-1.1,0.1-1.7C246.6-4.8,246.1-10.9,241.9-12.1z"/>
	<path class="st3" d="M236.4,11.6c-1.5-3-4.7-5.2-8.5-6.6c-0.3-0.2-0.7-0.5-1-0.6c-2.9-1.3-6.5-1.4-8.5,0.5c0,0,0,0-0.1,0.1
		c-1.1,0.3-2,0.9-2.5,1.6c-1.8,2.6-0.2,4.9,2.7,6.7c1,1.2,2.7,2.2,4.5,2.2c0.1,0,0.1,0,0.2,0c2.8,1,5.8,1.7,8.1,2
		C236.5,19.4,240.4,14.3,236.4,11.6z"/>
	<path class="st3" d="M233.1,22l-0.1,0.1c-1.2,0-2.4,0.5-3.5,1.1c-2.5,0-5.2,1-7.5,2.4c-1.8,1-3.4,3-3,4.8c0.6,2.1,1.3,4.1,3.3,5.3
		c2.1,1.2,4.8,1.2,7.5,0.2c2.5-1,4.5-2.8,5.9-4.8c0.5-0.7,1.1-1.5,1.4-2.3C242.3,25.7,238.8,19.2,233.1,22z"/>
	<path class="st3" d="M253.3,2.4l0.1-0.1c0.1-0.9,0.6-1.8,1.3-2.6c0.2-1.9,1.4-3.9,2.7-5.6c1-1.3,2.8-2.5,4.2-2.1
		c1.6,0.5,3.2,1.1,4,2.7c0.8,1.6,0.5,3.7-0.6,5.7c-1.1,1.8-2.7,3.3-4.5,4.3c-0.6,0.3-1.3,0.7-2,1C255.4,9.5,250.5,6.5,253.3,2.4z"/>
</g>
</svg>
