<?xml version="1.0" encoding="utf-8"?>
<!-- Generator: Adobe Illustrator 23.0.1, SVG Export Plug-In . SVG Version: 6.00 Build 0)  -->
<svg version="1.1" id="Layer_1" xmlns="http://www.w3.org/2000/svg" xmlns:xlink="http://www.w3.org/1999/xlink" x="0px" y="0px"
	 viewBox="0 0 110 110" style="enable-background:new 0 0 110 110;" xml:space="preserve">
<style type="text/css">
	.st0{fill:#9E9A95;}
	.st1{fill:#403F4C;}
</style>
<rect class="st0" width="110" height="110"/>
<g>
	<path class="st1" d="M100,52l-17.8-2.4l-8.7-15.3c-2.4-4.1-6.8-6.7-11.5-6.7H38.8c-5.6,0-10.6,3.5-12.5,8.7l-4.7,13L9.8,51.9
		c-1.4,0.3-2.3,1.5-2.3,2.9v16.9c0,1.6,1.3,2.9,2.9,2.9l0,0h7.2v-1c0-7.1,5.8-12.9,12.9-12.9s12.9,5.8,12.9,12.9v1h23.1v-1
		c0-7.1,5.8-12.9,12.9-12.9c7.1,0,12.9,5.8,12.9,12.9v1h7.3c1.6,0,2.9-1.3,2.9-2.9l0,0V55C102.5,53.5,101.5,52.2,100,52z M66.2,38.5
		l5.7,9.9c0.2,0.3,0,0.7-0.3,0.8c-0.1,0-0.1,0.1-0.2,0.1H53.5c-0.3,0-0.6-0.2-0.6-0.5l-1.1-12.1c0-0.3,0.2-0.6,0.6-0.6l0,0h9.5
		C63.7,36,65.4,36.9,66.2,38.5z M38.8,36h4.1c0.3,0,0.6,0.2,0.6,0.5l1.1,12.1c0,0.3-0.2,0.6-0.6,0.6l0,0H31.2
		c-0.4,0-0.6-0.3-0.6-0.7v-0.1l3.4-9.2C34.8,37.3,36.7,36,38.8,36z"/>
	<circle class="st1" cx="30.5" cy="73.6" r="8.8"/>
	<circle class="st1" cx="79.4" cy="73.6" r="8.8"/>
</g>
</svg>
