<?xml version="1.0" encoding="utf-8"?>
<!-- Generator: Adobe Illustrator 23.0.1, SVG Export Plug-In . SVG Version: 6.00 Build 0)  -->
<svg version="1.1" id="Layer_1" xmlns="http://www.w3.org/2000/svg" xmlns:xlink="http://www.w3.org/1999/xlink" x="0px" y="0px"
	 viewBox="0 0 182 89" style="enable-background:new 0 0 182 89;" xml:space="preserve">
<style type="text/css">
	.st0{clip-path:url(#SVGID_2_);}
	.st1{fill:#B2A589;}
	.st2{fill:#FFB896;}
	.st3{fill:#FFF9B1;}
	.st4{fill:#9AB285;}
	.st5{fill:#11929E;}
	.st6{fill:none;stroke:#212628;stroke-width:3.28;stroke-linecap:square;stroke-miterlimit:10;}
	.st7{fill:#212628;}
</style>
<title>logo</title>
<g>
	<g>
		<defs>
			<path id="SVGID_1_" d="M39.8,85.2H3.3c-0.2,0-0.3-0.3-0.3-0.8v-15c0-0.4,0.1-0.7,0.2-0.7l17.2-7.6c0.3-0.1,0.4-1.2,0-1.4
				l-17.2-15C3.1,44.5,3,44.2,3,44V4.6c0-0.4,0.1-0.8,0.3-0.8h36.5c0.2,0,0.3,0.3,0.3,0.8v15c0,0.4-0.1,0.7-0.3,0.7l-17.2,7.5
				c-0.3,0.1-0.3,1.2,0,1.4l17.3,15c0.2,0.2,0.2,0.4,0.2,0.7v39.5C40.2,84.9,40,85.2,39.8,85.2z"/>
		</defs>
		<clipPath id="SVGID_2_">
			<use xlink:href="#SVGID_1_"  style="overflow:visible;"/>
		</clipPath>
		<g class="st0">
			<rect x="3" y="3.9" class="st1" width="37.2" height="16.3"/>
			<rect x="3" y="20.1" class="st2" width="37.2" height="16.3"/>
			<rect x="3" y="52.7" class="st3" width="37.2" height="16.3"/>
			<rect x="3" y="36.4" class="st4" width="37.2" height="16.3"/>
			<rect x="3" y="69" class="st5" width="37.2" height="16.3"/>
		</g>
	</g>
</g>
<path class="st6" d="M39.8,85.2H3.3c-0.2,0-0.3-0.3-0.3-0.8v-15c0-0.4,0.1-0.7,0.2-0.7l17.2-7.6c0.3-0.1,0.4-1.2,0-1.4l-17.2-15
	C3.1,44.5,3,44.2,3,44V4.6c0-0.4,0.1-0.8,0.3-0.8h36.5c0.2,0,0.3,0.3,0.3,0.8v15c0,0.4-0.1,0.7-0.3,0.7l-17.2,7.5
	c-0.3,0.1-0.3,1.2,0,1.4l17.3,15c0.2,0.2,0.2,0.4,0.2,0.7v39.5C40.2,84.9,40,85.2,39.8,85.2z"/>
<g>
	<path class="st7" d="M57.4,2.3v37.6h-6.8V2.3H57.4z"/>
	<path class="st7" d="M73.4,24.9c0-1.3-0.4-1.6-1.7-1.6h-4.8c-4.5,0-6.1-2.2-6.1-6V8.2c0-3.8,1.8-5.9,6.4-5.9h6.5
		c4.5,0,6.4,2.1,6.4,5.9v5.2h-6.9V9.1c0-1.2-0.4-1.6-1.7-1.6h-2.3c-1.3,0-1.7,0.4-1.7,1.6v7.6c0,1.3,0.4,1.6,1.7,1.6H74
		c4.5,0,6.3,2.1,6.3,5.8v9.8c0,3.8-1.9,5.9-6.5,5.9h-6.4c-4.6,0-6.5-2.1-6.5-5.9v-5.2h6.8V33c0,1.3,0.4,1.6,1.7,1.6h2.3
		c1.3,0,1.7-0.4,1.7-1.6V24.9z"/>
	<path class="st7" d="M98.2,32H90l-1.3,7.8h-6.8l7.6-37.6h9.2l7.9,37.6h-6.9L98.2,32z M97.3,26.9L94,8.9l-3.1,18H97.3z"/>
	<path class="st7" d="M124.2,32H116l-1.3,7.8h-6.8l7.6-37.6h9.2l7.9,37.6h-6.9L124.2,32z M123.2,26.9l-3.3-18l-3.1,18H123.2z"/>
	<path class="st7" d="M147.4,14.7V8.9c0-1.3-0.4-1.6-1.7-1.6H143c-1.3,0-1.7,0.4-1.7,1.6v24.4c0,1.3,0.4,1.6,1.7,1.6h2.8
		c1.3,0,1.7-0.4,1.7-1.6v-5.7h6.9V34c0,3.7-2,5.9-6.5,5.9h-7c-4.5,0-6.5-2.2-6.5-5.9V8.2c0-3.8,2-5.9,6.5-5.9h7
		c4.5,0,6.5,2.1,6.5,5.9v6.5H147.4z"/>
</g>
<g>
	<path class="st7" d="M62.1,71.9c0-1.2-0.4-1.6-1.7-1.6h-4.8c-4.5,0-6.1-2.2-6.1-6v-9.2c0-3.8,1.8-5.9,6.4-5.9h6.5
		c4.5,0,6.4,2.1,6.4,5.9v5.2H62v-4.3c0-1.2-0.4-1.6-1.7-1.6h-2.3c-1.3,0-1.7,0.4-1.7,1.6v7.6c0,1.3,0.4,1.6,1.7,1.6h4.7
		c4.5,0,6.3,2.1,6.3,5.8v9.8c0,3.8-1.9,5.9-6.5,5.9h-6.4c-4.6,0-6.5-2.1-6.5-5.9v-5.2h6.8V80c0,1.2,0.4,1.6,1.7,1.6h2.3
		c1.3,0,1.7-0.4,1.7-1.6V71.9z"/>
	<path class="st7" d="M93.6,49.2v37.6h-6.8v-16H79v16h-6.8V49.2H79v16.3h7.7V49.2H93.6z"/>
	<path class="st7" d="M115.5,81.6v5.2H97.2V49.2H115v5.2h-11v10.4h9.2v5.3h-9.2v11.4H115.5z"/>
	<path class="st7" d="M136.5,81.6v5.2h-18.3V49.2H136v5.2h-11v10.4h9.2v5.3h-9.2v11.4H136.5z"/>
	<path class="st7" d="M157.8,54.5h-6.6v32.3h-6.8V54.5h-6.5v-5.2h20V54.5z"/>
	<path class="st7" d="M172.4,71.9c0-1.2-0.4-1.6-1.7-1.6h-4.8c-4.5,0-6.1-2.2-6.1-6v-9.2c0-3.8,1.8-5.9,6.4-5.9h6.5
		c4.5,0,6.4,2.1,6.4,5.9v5.2h-6.9v-4.3c0-1.2-0.4-1.6-1.7-1.6h-2.3c-1.3,0-1.7,0.4-1.7,1.6v7.6c0,1.3,0.4,1.6,1.7,1.6h4.7
		c4.5,0,6.3,2.1,6.3,5.8v9.8c0,3.8-1.9,5.9-6.5,5.9h-6.4c-4.6,0-6.5-2.1-6.5-5.9v-5.2h6.8V80c0,1.2,0.4,1.6,1.7,1.6h2.3
		c1.3,0,1.7-0.4,1.7-1.6V71.9z"/>
</g>
</svg>
