<?xml version="1.0" encoding="utf-8"?>
<!-- Generator: Adobe Illustrator 22.1.0, SVG Export Plug-In . SVG Version: 6.00 Build 0)  -->
<svg version="1.1" id="Layer_1" xmlns:serif="http://www.serif.com/"
	 xmlns="http://www.w3.org/2000/svg" xmlns:xlink="http://www.w3.org/1999/xlink" x="0px" y="0px" viewBox="0 0 28.5 31.3"
	 style="enable-background:new 0 0 28.5 31.3;" xml:space="preserve">
<path d="M5.9,17.9c3.1,0,5.7,2.4,5.7,5.4c0,3-2.5,5.4-5.7,5.4s-5.7-2.4-5.7-5.4C0.2,20.3,2.8,17.9,5.9,17.9z M22.9,17.9
	c3.1,0,5.7,2.4,5.7,5.4c0,3-2.5,5.4-5.7,5.4s-5.7-2.4-5.7-5.4C17.2,20.3,19.7,17.9,22.9,17.9z M5.9,19.2c2.3,0,4.2,1.8,4.2,4
	c0,2.2-1.9,4-4.2,4s-4.2-1.8-4.2-4C1.7,21,3.6,19.2,5.9,19.2z M22.9,19.2c2.3,0,4.2,1.8,4.2,4c0,2.2-1.9,4-4.2,4s-4.2-1.8-4.2-4
	C18.6,21,20.5,19.2,22.9,19.2z M8.4,16.7c-0.8-0.3-1.3-1.2-1.1-2.1l2-6.9c0.3-1,1.3-1.5,2.3-1.3c0.9,0.2,1.4,1,1.4,1.8l4.5,4.3H20
	c0.5,0,0.9,0.4,0.9,0.9c0,0.5-0.4,0.9-0.9,0.9h-2.8c-0.1,0-0.2,0-0.3,0c-0.2,0-0.4-0.1-0.5-0.2l-3.9-3.7L11,15.6
	c0,0.2-0.1,0.3-0.2,0.4l5.1,2.8c0.4,0.2,0.7,0.6,0.6,1.1l-1.8,6.3c-0.1,0.5-0.7,0.8-1.2,0.6c-0.5-0.1-0.8-0.6-0.7-1.1l1.6-5.6
	C14.5,20.1,8.4,16.7,8.4,16.7z M12.3,2.7c1,0,1.9,0.8,1.9,1.8c0,1-0.8,1.8-1.9,1.8s-1.9-0.8-1.9-1.8C10.4,3.5,11.3,2.7,12.3,2.7z"/>
</svg>
