<?xml version="1.0" encoding="utf-8"?>
<!-- Generator: Adobe Illustrator 22.1.0, SVG Export Plug-In . SVG Version: 6.00 Build 0)  -->
<svg version="1.1" id="Layer_1" xmlns="http://www.w3.org/2000/svg" xmlns:xlink="http://www.w3.org/1999/xlink" x="0px" y="0px"
	 viewBox="0 0 111.5 66.1" style="enable-background:new 0 0 111.5 66.1;" xml:space="preserve">
<style type="text/css">
	.st0{fill:#403F4C;}
</style>
<g>
	<path class="st0" d="M102,27.1l-17.8-2.4L75.5,9.4C73.1,5.3,68.7,2.7,64,2.7H40.8c-5.6,0-10.6,3.5-12.5,8.7l-4.7,13L11.8,27
		c-1.4,0.3-2.3,1.5-2.3,2.9v16.9c0,1.6,1.3,2.9,2.9,2.9c0,0,0,0,0,0h7.2v-1c0-7.1,5.8-12.9,12.9-12.9s12.9,5.8,12.9,12.9v1h23.1v-1
		c0-7.1,5.8-12.9,12.9-12.9s12.9,5.8,12.9,12.9v1h7.3c1.6,0,2.9-1.3,2.9-2.9c0,0,0,0,0,0V30.1C104.5,28.6,103.5,27.3,102,27.1z
		 M68.2,13.6l5.7,9.9c0.2,0.3,0,0.7-0.3,0.8c-0.1,0-0.1,0.1-0.2,0.1H55.5c-0.3,0-0.6-0.2-0.6-0.5l-1.1-12.1c0-0.3,0.2-0.6,0.6-0.6
		c0,0,0,0,0,0h9.5C65.7,11.1,67.4,12,68.2,13.6z M40.8,11.1h4.1c0.3,0,0.6,0.2,0.6,0.5l1.1,12.1c0,0.3-0.2,0.6-0.6,0.6c0,0,0,0,0,0
		H33.2c-0.4,0-0.6-0.3-0.6-0.7c0,0,0-0.1,0-0.1l3.4-9.2C36.8,12.4,38.7,11.1,40.8,11.1z"/>
	<circle class="st0" cx="32.5" cy="48.7" r="8.8"/>
	<circle class="st0" cx="81.4" cy="48.7" r="8.8"/>
</g>
<rect y="57.2" width="111.5" height="13.1"/>
</svg>
