<?xml version="1.0" encoding="utf-8"?>
<!-- Generator: Adobe Illustrator 22.1.0, SVG Export Plug-In . SVG Version: 6.00 Build 0)  -->
<svg version="1.1" id="Layer_1" xmlns="http://www.w3.org/2000/svg" xmlns:xlink="http://www.w3.org/1999/xlink" x="0px" y="0px"
	 viewBox="0 0 512.7 92.3" style="enable-background:new 0 0 512.7 92.3;" xml:space="preserve">
<style type="text/css">
	.st0{fill:#CCCCCC;}
	.st1{fill:#E3E3E3;}
</style>
<g>
	<path class="st0" d="M198.5,35.8c0.8-3.1-0.3-6.5-3.3-9.3c-0.9-1.3-2-2.4-3.4-3.4c-6.4-4.4-15.7-5.8-23.2-6.8
		c-16.2-2.2-35.1-3.5-50.4,3c-4.1,1.8-0.6,7.8,3.5,6c12-5.2,26.9-3.9,39.7-2.9c6.9,0.6,13.9,1.7,20.5,3.8c3,0.9,6.3,2,8.1,4.8
		c1.8,2.9,1.8,6.7,2,9.9c0.2,4.5,7.2,4.5,7,0C198.9,39.4,198.7,37.6,198.5,35.8z"/>
	<path class="st0" d="M236.3,22.7c-9.8-1.9-19.5-3.7-29.3-5.6c-5.1-1-10.4-1.6-15.3-2.9c-3.8-1-6.7-3.8-10.6-4.5
		c-0.6-0.1-1.2-0.1-1.7,0.1c-2.6-2.1-5.5-3.1-9-3.4c-0.7-0.1-1.3,0.1-1.9,0.5c-15.9-3.7-32.5-2.4-47.8,3.3c-0.5,0.2-0.9,0.3-1.3,0.5
		c-1.3,0.5-2.7,1.1-4,1.7c-4.1,1.9-0.5,7.9,3.5,6c18.5-8.5,39.5-8.8,58.4-1.6c0.2,0.1,0.5,0.1,0.7,0.2c1.1,0.5,2.2,0.9,3.3,1.4
		c0.9,0.4,1.7,0.3,2.4-0.1c1.5,0.8,2.9,1.7,4.5,2.3c3.6,1.1,7.4,1.5,11.1,2.2l25.4,4.9c8.5,1.6,16.9,3.2,25.4,4.9
		c3.3,0.7,7.1,1.4,10,3c3.6,2.6,5.3,5.7,4.9,9.5c-0.4,1.3-1,2.7-1.6,4.1c1.3-1,2.4-1.8,3.3-2.6c2,1.5,5.8,0.7,5.7-2.6
		C272,25.8,249.4,25.2,236.3,22.7z"/>
	<path class="st0" d="M110.4,11.9c-0.4-0.1-0.8-0.1-1.2-0.2c-0.6-0.5-2.3-0.7-3.4-0.9c-4.1-0.6-8.2-1-12.2-1.2
		c-12.2-1-24.3-0.1-35.4,5.3c-0.6,0.3-1.1,0.6-1.7,0.9c-0.8,0.4-1.6,0.9-2.4,1.4c-2.5,1.6-1.9,4.7,0,6c-5,0.7-10,1.5-15,2.5
		c-0.3,0-0.6,0.1-0.8,0.1c-0.7-0.4-1.5-0.6-2.5-0.4c-4.2,0.8-8.4,2-12.4,3.5c-0.6,0.2-1.1,0.6-1.5,1c-1,0.3-1.9,0.6-2.9,0.8
		c-4.3,1.3-2.5,8.1,1.9,6.7c2.5-0.8,5-1.5,7.6-2.2c-1.1,0.6-2.1,1.2-3.1,1.8c-3.9,2.3-0.4,8.3,3.5,6c4.2-2.5,8.5-4.7,13-6.6
		c2.1-0.9,2.2-3,1.2-4.5c19.5-3.8,39.4-4.7,59.3-2.9c4.5,0.4,4.5-6.6,0-7c-4.7-0.4-9.4-0.7-14.1-0.8c-9.2-0.8-18.6-0.5-27.4,1
		c-0.7,0.1-1.4,0.2-2.1,0.2c15.2-8.8,33-6.9,49.7-3.9C113,19.4,114.9,12.7,110.4,11.9z"/>
	<path class="st0" d="M32.9,37.5C32.9,37.5,32.7,37.5,32.9,37.5C32.7,37.5,32.7,37.5,32.9,37.5C32.7,37.5,32.9,37.5,32.9,37.5
		L32.9,37.5z"/>
	<path class="st1" d="M229.5,58.8c-5.9-0.6-11.5,0-17.7,0.8c-12.7,1.7-24.8,1.1-36.3-1.9c-2.6-0.6-3.9-0.6-6.2,0.3
		c-17.3,5.8-39.5,5.8-56.8,0c-2-0.6-3.9-0.8-6.2-0.6c-7.5,0.8-14.7,0.8-22.2,0c-2.6-0.3-4.6,0-6.9,0.6c-16.3,4.1-33.4,4.4-49.4,0
		C11.7,53.6,4.9,47.2,8.3,39.2c3.2-7.7,14.7-12.7,32.7-14.9c3-0.3,3.9-0.8,4.9-1.9c4.9-7.7,17-12.7,35.6-14.4
		c10.5-0.8,20.9-0.3,30.4,2.2c2.6,0.6,3.9,0.3,5.6-0.6C139-0.6,175.3,0.8,192,12.9c1,0.8,2.2,1.1,4.6,1.1
		c11.7,0.3,21.9,2.5,29.8,5.8c2,0.8,3.6,1.1,6.2,1.1c23.6,0.6,41.5,8,42.9,18c1.2,8.8-15.1,17.4-36.9,19.1
		C235.7,58.8,232.7,58.8,229.5,58.8z M54.2,18.2c1.6,0,2.6-0.6,3.6-1.1c13.5-4.7,27.8-5.8,44.1-2.8c3.2,0.6,5.9,0,7.5-1.7
		c1.2-1.4-2-1.4-3.2-1.7C91.9,8.4,77.8,9,64.7,12.8C60.1,14.1,55.9,15.7,54.2,18.2c-0.4,0-0.4,0.3-0.6,0.3H54
		C53.9,18.5,53.9,18.2,54.2,18.2z M116.3,13.2c0.6,0,1.2-0.3,2-0.3c12.1-4.4,25.6-5.5,40.5-3.6c10.5,1.4,18.9,3.9,24.2,8
		c1.2,1.1,3,1.9,6.5,2.2c8.5,0.3,16.1,1.7,22.2,3.9c3.9,1.4,8.2,2.5,13.7,2.5c4.2,0,8.5,0.6,12.5,1.4c17.9,3.9,28.2,8.8,27.2,17.4
		c0,1.4-1,2.8-1.6,4.1c8.5-6.1,7.5-7.7,5.6-11.9c-3.2-7.5-19.3-12.4-36-13.8c-4.6-0.6-9.5,0.3-13.7-1.7c-7.2-3-16.1-5.3-26.4-5.3
		c-2.2,0-3.6-0.6-4.2-1.4c-2.2-2.8-7.9-4.4-12.5-6.1c-5.2-1.9-12.1-2.5-18.9-3.3c-12.5-1.1-22.9,0.8-32.7,3.6
		C121.3,9.9,117.1,11,116.3,13.2c-1.2,0-2.6,0-2,0.8C115.7,14.1,116.1,13.5,116.3,13.2z M195.2,40.6c5.6-4.1,4.2-11.3-1.6-15.5
		c-14.1-9.4-45.1-13-68.7-5c-1,0.3-2.2,0.8-1.2,1.4c0.6,0.6,2.2,0.3,3.2,0c12.7-3.3,26.2-3.6,39.9-1.7c11.7,1.7,20.3,5,25.8,9.7
		C196.5,32.8,197.1,36.4,195.2,40.6z M33.9,36.4c4.6-5,12.7-8.3,23.2-10.5c12.5-2.5,25.2-2.8,38.3-0.3c1.6,0.3,3.2,0.3,4.9,0.3
		c1.6-0.3,3.6-0.3,3.9-1.1c0.4-0.8-1.6-1.1-3.2-1.4c-17.9-4.1-38.3-3-54,2.2c-1.2,0.6-2,1.4-4.2,1.4c-0.4-0.8,1.2-1.4,0-1.9
		c-10.5,1.1-18.9,3.6-24.6,7.7c6.5-1.9,13.1-3.9,21.9-4.7C37.5,30.9,33.7,33.4,33.9,36.4z M32.9,37.5L32.9,37.5
		C32.9,37.5,32.7,37.5,32.9,37.5C32.7,37.5,32.7,37.5,32.9,37.5C32.7,37.5,32.9,37.5,32.9,37.5z"/>
</g>
<g>
	<path class="st0" d="M435.7,33c0.8-3.1-0.3-6.5-3.3-9.3c-0.9-1.3-2-2.4-3.4-3.4c-6.4-4.4-15.7-5.8-23.2-6.8
		c-16.2-2.2-35.1-3.5-50.4,3c-4.1,1.8-0.6,7.8,3.5,6c12-5.2,26.9-3.9,39.7-2.9c6.9,0.6,13.9,1.7,20.5,3.8c3,0.9,6.3,2,8.1,4.8
		c1.8,2.9,1.8,6.7,2,9.9c0.2,4.5,7.2,4.5,7,0C436,36.6,435.9,34.8,435.7,33z"/>
	<path class="st0" d="M473.5,19.9c-9.8-1.9-19.5-3.7-29.3-5.6c-5.1-1-10.4-1.6-15.3-2.9c-3.8-1-6.7-3.8-10.6-4.5
		c-0.6-0.1-1.2-0.1-1.7,0.1c-2.6-2.1-5.5-3.1-9-3.4c-0.7-0.1-1.3,0.1-1.9,0.5c-15.9-3.7-32.5-2.4-47.8,3.3c-0.5,0.2-0.9,0.3-1.3,0.5
		c-1.3,0.5-2.7,1.1-4,1.7c-4.1,1.9-0.5,7.9,3.5,6c18.5-8.5,39.5-8.8,58.4-1.6c0.2,0.1,0.5,0.1,0.7,0.2c1.1,0.5,2.2,0.9,3.3,1.4
		c0.9,0.4,1.7,0.3,2.4-0.1c1.5,0.8,2.9,1.7,4.5,2.3c3.6,1.1,7.4,1.5,11.1,2.2l25.4,4.9c8.5,1.6,16.9,3.2,25.4,4.9
		c3.3,0.7,7.1,1.4,10,3c3.6,2.6,5.3,5.7,4.9,9.5c-0.4,1.3-1,2.7-1.6,4.1c1.3-1,2.4-1.8,3.3-2.6c2,1.5,5.8,0.7,5.7-2.6
		C509.1,23,486.5,22.4,473.5,19.9z"/>
	<path class="st0" d="M347.6,9.1c-0.4-0.1-0.8-0.1-1.2-0.2c-0.6-0.5-2.3-0.7-3.4-0.9c-4.1-0.6-8.2-1-12.2-1.2
		c-12.2-1-24.3-0.1-35.4,5.3c-0.6,0.3-1.1,0.6-1.7,0.9c-0.8,0.4-1.6,0.9-2.4,1.4c-2.5,1.6-1.9,4.7,0,6c-5,0.7-10,1.5-15,2.5
		c-0.3,0-0.6,0.1-0.8,0.1c-0.7-0.4-1.5-0.6-2.5-0.4c-4.2,0.8-8.4,2-12.4,3.5c-0.6,0.2-1.1,0.6-1.5,1c-1,0.3-1.9,0.6-2.9,0.8
		c-4.3,1.3-2.5,8.1,1.9,6.7c2.5-0.8,5-1.5,7.6-2.2c-1.1,0.6-2.1,1.2-3.1,1.8c-3.9,2.3-0.4,8.3,3.5,6c4.2-2.5,8.5-4.7,13-6.6
		c2.1-0.9,2.2-3,1.2-4.5c19.5-3.8,39.4-4.7,59.3-2.9c4.5,0.4,4.5-6.6,0-7c-4.7-0.4-9.4-0.7-14.1-0.8c-9.2-0.8-18.6-0.5-27.4,1
		c-0.7,0.1-1.4,0.2-2.1,0.2c15.2-8.8,33-6.9,49.7-3.9C350.1,16.6,352,9.9,347.6,9.1z"/>
	<path class="st0" d="M270.1,34.7C270.1,34.7,269.8,34.7,270.1,34.7C269.8,34.7,269.8,34.7,270.1,34.7
		C269.8,34.7,270.1,34.7,270.1,34.7L270.1,34.7z"/>
	<path class="st1" d="M466.6,56c-5.9-0.6-11.5,0-17.7,0.8c-12.7,1.7-24.8,1.1-36.3-1.9c-2.6-0.6-3.9-0.6-6.2,0.3
		c-17.3,5.8-39.5,5.8-56.8,0c-2-0.6-3.9-0.8-6.2-0.6c-7.5,0.8-14.7,0.8-22.2,0c-2.6-0.3-4.6,0-6.9,0.6c-16.3,4.1-33.4,4.4-49.4,0
		c-16.1-4.4-22.9-10.8-19.6-18.8c3.2-7.7,14.7-12.7,32.7-14.9c3-0.3,3.9-0.8,4.9-1.9c4.9-7.7,17-12.7,35.6-14.4
		C329,4.4,339.5,4.9,349,7.4c2.6,0.6,3.9,0.3,5.6-0.6c21.6-10.2,57.8-8.8,74.5,3.3c1,0.8,2.2,1.1,4.6,1.1
		c11.7,0.3,21.9,2.5,29.8,5.8c2,0.8,3.6,1.1,6.2,1.1c23.6,0.6,41.5,8,42.9,18c1.2,8.8-15.1,17.4-36.9,19.1
		C472.9,56,469.9,56,466.6,56z M291.4,15.4c1.6,0,2.6-0.6,3.6-1.1c13.5-4.7,27.8-5.8,44.1-2.8c3.2,0.6,5.9,0,7.5-1.7
		c1.2-1.4-2-1.4-3.2-1.7C329,5.6,315,6.2,301.9,10C297.3,11.3,293,12.9,291.4,15.4c-0.4,0-0.4,0.3-0.6,0.3h0.4
		C291,15.7,291,15.4,291.4,15.4z M353.5,10.4c0.6,0,1.2-0.3,2-0.3C367.6,5.7,381,4.6,396,6.5c10.5,1.4,18.9,3.9,24.2,8
		c1.2,1.1,3,1.9,6.5,2.2c8.5,0.3,16.1,1.7,22.2,3.9c3.9,1.4,8.2,2.5,13.7,2.5c4.2,0,8.5,0.6,12.5,1.4c17.9,3.9,28.2,8.8,27.2,17.4
		c0,1.4-1,2.8-1.6,4.1c8.5-6.1,7.5-7.7,5.6-11.9c-3.2-7.5-19.3-12.4-36-13.8c-4.6-0.6-9.5,0.3-13.7-1.7c-7.2-3-16.1-5.3-26.4-5.3
		c-2.2,0-3.6-0.6-4.2-1.4c-2.2-2.8-7.9-4.4-12.5-6.1c-5.2-1.9-12.1-2.5-18.9-3.3c-12.5-1.1-22.9,0.8-32.7,3.6
		C358.5,7.1,354.2,8.2,353.5,10.4c-1.2,0-2.6,0-2,0.8C352.9,11.3,353.2,10.7,353.5,10.4z M432.4,37.8c5.6-4.1,4.2-11.3-1.6-15.5
		c-14.1-9.4-45.1-13-68.7-5c-1,0.3-2.2,0.8-1.2,1.4c0.6,0.6,2.2,0.3,3.2,0c12.7-3.3,26.2-3.6,39.9-1.7c11.7,1.7,20.3,5,25.8,9.7
		C433.6,30,434.2,33.6,432.4,37.8z M271.1,33.6c4.6-5,12.7-8.3,23.2-10.5c12.5-2.5,25.2-2.8,38.3-0.3c1.6,0.3,3.2,0.3,4.9,0.3
		c1.6-0.3,3.6-0.3,3.9-1.1c0.4-0.8-1.6-1.1-3.2-1.4c-17.9-4.1-38.3-3-54,2.2c-1.2,0.6-2,1.4-4.2,1.4c-0.4-0.8,1.2-1.4,0-1.9
		c-10.5,1.1-18.9,3.6-24.6,7.7c6.5-1.9,13.1-3.9,21.9-4.7C274.7,28.1,270.8,30.6,271.1,33.6z M270.1,34.7L270.1,34.7
		C270.1,34.7,269.8,34.7,270.1,34.7C269.8,34.7,269.8,34.7,270.1,34.7C269.8,34.7,270.1,34.7,270.1,34.7z"/>
</g>
<g>
	<path class="st0" d="M68.6,59c-0.7-3.1,0.3-6.5,2.9-9.3c0.8-1.3,1.8-2.4,3-3.4c5.7-4.4,13.9-5.8,20.6-6.8c14.4-2.2,31.2-3.5,44.9,3
		c3.7,1.8,0.5,7.8-3.1,6c-10.7-5.2-23.9-3.9-35.3-2.9c-6.2,0.6-12.3,1.7-18.3,3.8c-2.7,0.9-5.6,2-7.2,4.8c-1.6,2.9-1.6,6.7-1.8,9.9
		c-0.2,4.5-6.4,4.5-6.2,0C68.2,62.6,68.4,60.8,68.6,59z"/>
	<path class="st0" d="M34.9,45.9c8.7-1.9,17.4-3.7,26.1-5.6c4.5-1,9.2-1.6,13.6-2.9c3.4-1,5.9-3.8,9.4-4.5c0.5-0.1,1.1-0.1,1.5,0.1
		c2.3-2.1,4.9-3.1,8-3.4c0.6-0.1,1.2,0.1,1.7,0.5c14.1-3.7,28.9-2.4,42.6,3.3c0.4,0.2,0.8,0.3,1.2,0.5c1.2,0.5,2.4,1.1,3.6,1.7
		c3.6,1.9,0.5,7.9-3.1,6c-16.4-8.5-35.2-8.8-52-1.6c-0.2,0.1-0.4,0.1-0.6,0.2c-1,0.5-1.9,0.9-2.9,1.4c-0.8,0.4-1.5,0.3-2.1-0.1
		c-1.3,0.8-2.6,1.7-4,2.3c-3.2,1.1-6.6,1.5-9.9,2.2l-22.6,4.9c-7.5,1.6-15.1,3.2-22.6,4.9c-2.9,0.7-6.3,1.4-8.9,3
		c-3.2,2.6-4.7,5.7-4.4,9.5c0.3,1.3,0.9,2.7,1.4,4.1c-1.2-1-2.1-1.8-2.9-2.6c-1.8,1.5-5.1,0.7-5.1-2.6C3.2,49,23.3,48.4,34.9,45.9z"
		/>
	<path class="st0" d="M147,35.1c0.4-0.1,0.7-0.1,1.1-0.2c0.5-0.5,2-0.7,3-0.9c3.7-0.6,7.3-1,10.8-1.2c10.8-1,21.6-0.1,31.5,5.3
		c0.5,0.3,1,0.6,1.5,0.9c0.7,0.4,1.4,0.9,2.1,1.4c2.2,1.6,1.7,4.7,0,6c4.5,0.7,8.9,1.5,13.3,2.5c0.3,0,0.5,0.1,0.8,0.1
		c0.6-0.4,1.4-0.6,2.2-0.4c3.8,0.8,7.4,2,11,3.5c0.6,0.2,1,0.6,1.3,1c0.8,0.3,1.7,0.6,2.5,0.8c3.8,1.3,2.2,8.1-1.7,6.7
		c-2.2-0.8-4.5-1.5-6.7-2.2c0.9,0.6,1.9,1.2,2.8,1.8c3.5,2.3,0.3,8.3-3.1,6c-3.7-2.5-7.6-4.7-11.6-6.6c-1.9-0.9-2-3-1.1-4.5
		c-17.3-3.8-35.1-4.7-52.8-2.9c-4,0.4-4-6.6,0-7c4.2-0.4,8.4-0.7,12.6-0.8c8.2-0.8,16.6-0.5,24.4,1c0.6,0.1,1.2,0.2,1.9,0.2
		c-13.5-8.8-29.4-6.9-44.2-3.9C144.7,42.6,143,35.9,147,35.1z"/>
	<path class="st0" d="M216,60.7C216,60.7,216.2,60.7,216,60.7C216.2,60.7,216.2,60.7,216,60.7C216.2,60.7,216,60.7,216,60.7
		L216,60.7z"/>
	<path class="st1" d="M41,82c5.2-0.6,10.2,0,15.8,0.8c11.3,1.7,22.1,1.1,32.3-1.9c2.3-0.6,3.4-0.6,5.5,0.3c15.4,5.8,35.2,5.8,50.6,0
		c1.8-0.6,3.4-0.8,5.5-0.6c6.7,0.8,13.1,0.8,19.7,0c2.3-0.3,4.1,0,6.1,0.6c14.5,4.1,29.7,4.4,43.9,0c14.3-4.4,20.4-10.8,17.4-18.8
		c-2.9-7.7-13.1-12.7-29.1-14.9c-2.7-0.3-3.4-0.8-4.3-1.9c-4.3-7.7-15.1-12.7-31.7-14.4c-9.3-0.8-18.6-0.3-27.1,2.2
		c-2.3,0.6-3.4,0.3-5-0.6c-19.2-10.2-51.5-8.8-66.3,3.3c-0.9,0.8-2,1.1-4.1,1.1c-10.4,0.3-19.5,2.5-26.5,5.8
		c-1.8,0.8-3.2,1.1-5.5,1.1c-21,0.6-36.9,8-38.2,18C-1,70.9,13.5,79.5,32.9,81.2C35.5,82,38.1,82,41,82z M197,41.4
		c-1.4,0-2.3-0.6-3.2-1.1c-12-4.7-24.7-5.8-39.3-2.8c-2.9,0.6-5.2,0-6.7-1.7c-1.1-1.4,1.8-1.4,2.9-1.7c12.8-2.5,25.3-1.9,36.9,1.9
		C191.8,37.3,195.5,38.9,197,41.4c0.3,0,0.3,0.3,0.6,0.3h-0.3C197.3,41.7,197.3,41.4,197,41.4z M141.7,36.4c-0.6,0-1.1-0.3-1.8-0.3
		c-10.8-4.4-22.7-5.5-36.1-3.6c-9.3,1.4-16.9,3.9-21.5,8c-1.1,1.1-2.7,1.9-5.8,2.2c-7.5,0.3-14.3,1.7-19.7,3.9
		c-3.4,1.4-7.3,2.5-12.2,2.5c-3.8,0-7.5,0.6-11.1,1.4c-16,3.9-25.1,8.8-24.2,17.4c0,1.4,0.9,2.8,1.4,4.1c-7.5-6.1-6.7-7.7-5-11.9
		C8.7,52.6,23,47.7,37.9,46.3c4.1-0.6,8.4,0.3,12.2-1.7c6.4-3,14.3-5.3,23.5-5.3c2,0,3.2-0.6,3.8-1.4c2-2.8,7-4.4,11.1-6.1
		c4.7-1.9,10.8-2.5,16.9-3.3c11.1-1.1,20.4,0.8,29.1,3.6C137.3,33.1,141.1,34.2,141.7,36.4c1.1,0,2.3,0,1.8,0.8
		C142.3,37.3,142,36.7,141.7,36.4z M71.5,63.8c-5-4.1-3.8-11.3,1.4-15.5c12.5-9.4,40.2-13,61.1-5c0.9,0.3,2,0.8,1.1,1.4
		c-0.6,0.6-2,0.3-2.9,0C121,41.4,109,41.1,96.8,43c-10.4,1.7-18.1,5-23,9.7C70.4,56,69.8,59.6,71.5,63.8z M215.1,59.6
		c-4.1-5-11.3-8.3-20.6-10.5c-11.1-2.5-22.4-2.8-34.1-0.3c-1.4,0.3-2.9,0.3-4.3,0.3c-1.4-0.3-3.2-0.3-3.4-1.1
		c-0.3-0.8,1.4-1.1,2.9-1.4c16-4.1,34.1-3,48,2.2c1.1,0.6,1.8,1.4,3.8,1.4c0.3-0.8-1.1-1.4,0-1.9c9.3,1.1,16.9,3.6,21.9,7.7
		c-5.8-1.9-11.6-3.9-19.5-4.7C211.9,54.1,215.3,56.6,215.1,59.6z M216,60.7L216,60.7C216,60.7,216.2,60.7,216,60.7
		C216.2,60.7,216.2,60.7,216,60.7C216.2,60.7,216,60.7,216,60.7z"/>
</g>
</svg>
