<?xml version="1.0" encoding="utf-8"?>
<!-- Generator: Adobe Illustrator 22.1.0, SVG Export Plug-In . SVG Version: 6.00 Build 0)  -->
<svg version="1.1" id="Layer_1" xmlns="http://www.w3.org/2000/svg" xmlns:xlink="http://www.w3.org/1999/xlink" x="0px" y="0px"
	 viewBox="0 0 600 144" style="enable-background:new 0 0 600 144;" xml:space="preserve">
<style type="text/css">
	.st0{fill:#FFFFFF;}
</style>
<g>
	<path class="st0" d="M442.5,89.3c9.4,0,17.3,6.9,19.8,16.4c1.2-0.5,2.6-0.7,4-0.7c4.2,0,7.9,2.3,10.1,5.8c1.7-0.6,3.5-0.9,5.5-0.9
		c7.2,0,13.1,4.5,13.1,10.1c0,5.6-5.9,10.1-13.1,10.1c-1.5,0-2.9-0.2-4.3-0.6c-2.8,1.4-6.4,2.4-10.5,2.5c-0.3,0-0.6,0-0.9,0l-0.2,0
		l-0.4,0c-4.1,0-7.8-0.8-10.8-2c-3.5,2.9-7.7,4.6-12.4,4.6c-4.1,0-8-1.3-11.2-3.6c-2.7,1.1-5.9,1.8-9.4,1.8c-9.4,0-17-4.9-17-10.9
		c0-6,7.6-10.9,16.9-10.9C422.4,99,431.4,89.3,442.5,89.3L442.5,89.3z"/>
</g>
<g>
	<path class="st0" d="M77.5,46c-8.2,0-15.2,6.9-17.4,16.4c-1.1-0.5-2.3-0.7-3.5-0.7c-3.7,0-6.9,2.3-8.9,5.8
		c-1.5-0.6-3.1-0.9-4.8-0.9c-6.3,0-11.5,4.5-11.5,10.1c0,5.6,5.1,10.1,11.5,10.1c1.3,0,2.6-0.2,3.8-0.6c2.4,1.4,5.6,2.4,9.2,2.5
		c0.3,0,0.5,0,0.8,0l0.2,0l0.3,0c3.6,0,6.9-0.8,9.5-2c3,2.9,6.8,4.6,10.9,4.6c3.6,0,7-1.3,9.8-3.6c2.4,1.1,5.2,1.8,8.2,1.8
		c8.2,0,14.9-4.9,14.9-10.9c0-6-6.7-10.9-14.9-10.9C95.2,55.6,87.3,46,77.5,46L77.5,46z"/>
</g>
</svg>
